<?xml version="1.0" encoding="UTF-8"?>
<svg version="1.1" viewBox="0 0 816 820" width="1280" height="1280" xmlns="http://www.w3.org/2000/svg">
<path transform="translate(397)" d="m0 0h23l33 3 32 5 27 6 30 9 28 11 33 16 22 13 19 13 12 9 16 13 12 11 8 7 13 13 7 8 9 10 11 14 13 18 12 19 13 23 12 25 12 31 9 31 6 28 4 26 3 36v20l-3 36-5 32-7 31-8 26-11 28-14 29-12 21-16 24-16 21-13 15-12 13-13 13-8 7-13 11-17 13-16 11-18 11-16 9-22 11-19 8-22 8-28 8-28 6-30 4-34 2-34-1-36-4-26-5-30-8-26-9-21-9-25-12-27-16-16-11-12-9-10-8-14-12-13-12-13-13-7-8-13-15-15-20-12-18-13-22-9-17-11-25-9-24-8-28-6-27-5-35-1-12v-53l3-30 4-24 6-26 8-26 8-22 10-23 10-19 10-17 12-19 9-12 11-14 12-14 9-10 20-20 8-7 12-10 20-15 15-10 13-8 18-10 29-14 26-10 29-9 28-6 23-4 25-3z" fill="#FDFDFD"/>
<path transform="translate(397)" d="m0 0h23l33 3 32 5 27 6 30 9 28 11 33 16 22 13 19 13 12 9 16 13 12 11 8 7 13 13 7 8 9 10 11 14 13 18 12 19 13 23 12 25 12 31 9 31 6 28 4 26 3 36v20l-3 36-5 32-7 31-8 26-11 28-14 29-12 21-16 24-16 21-13 15-12 13-13 13-8 7-13 11-17 13-16 11-18 11-16 9-22 11-19 8-22 8-28 8-28 6-30 4-34 2-34-1-36-4-26-5-30-8-26-9-21-9-25-12-27-16-16-11-12-9-10-8-14-12-13-12-13-13-7-8-13-15-15-20-12-18-13-22-9-17-11-25-9-24-8-28-6-27-5-35-1-12v-53l3-30 4-24 6-26 8-26 8-22 10-23 10-19 10-17 12-19 9-12 11-14 12-14 9-10 20-20 8-7 12-10 20-15 15-10 13-8 18-10 29-14 26-10 29-9 28-6 23-4 25-3zm-2 43-27 2-32 5-25 6-33 11-21 9-20 10-14 8-20 13-14 10-13 11-11 9-29 29-9 11-14 18-10 15-8 13-10 18-12 25-10 27-8 29-5 24-4 29-1 14v39l3 32 5 28 8 30 11 30 11 24 10 19 15 24 13 17 10 13 12 13 11 12 8 7 7 7 11 9 18 14 20 13 21 12 27 13 21 8 21 7 30 7 24 4 32 3h32l31-3 29-5 27-7 21-7 24-10 19-9 27-16 19-13 13-10 14-12 10-9 20-20 7-8 12-15 8-11 8-12 9-15 10-18 9-19 10-26 7-22 6-26 4-25 2-16v-58l-3-27-4-22-5-22-9-29-9-22-7-15-8-16-15-24-13-18-14-17-14-15-18-18-22-18-12-9-12-8-25-15-26-13-28-11-23-7-25-6-27-4-15-2-14-1z" fill="#F68C3C"/>
<path transform="translate(217,230)" d="m0 0 5 1 11 12 8 8 8 7 19 19 1 2 4-1 31-33 11-11 2-3 18-1h23l20 1 1 14v165h67v-179l60-1 12 13 34 34 7 8 39 39 2 1v-94h60l1 1v205l-7 8-40 40h-2l-1 3-8 7-3 1-1-100-7-8-77-77v-2l-4-2-4-4v289l-45 45h-2l-2 4-7 7-1 2h-3l-1-4-1-174h-66v180l-5-2-32-32-3-2v-2l-4-2-5-6-5-5-7-8-1-61-1-226-47 47-30-30-8-7-9-10-1 190-4-1-8-10-10-10-8-7-22-22-7-8-2-3v-204z" fill="#F68D3C"/>
<path transform="translate(409)" d="m0 0h11l33 3 32 5 27 6 30 9 28 11 33 16 22 13 19 13 12 9 16 13 12 11 8 7 13 13 7 8 9 10 11 14 13 18 12 19 13 23 12 25 12 31 9 31 6 28 4 26 3 36v20l-3 36-5 32-7 31-8 26-11 28-14 29-12 21-16 24-16 21-13 15-12 13-13 13-8 7-13 11-17 13-16 11-18 11-16 9-22 11-19 8-22 8-28 8-28 6-30 4-34 2h-5v-41l-2-1 31-2 31-4 21-4 28-8 20-7 21-9 17-8 27-16 19-13 13-10 14-12 10-9 19-19 7-8 12-15 8-11 8-12 9-15 10-18 9-19 10-26 7-22 6-26 4-25 2-16v-58l-3-27-4-22-5-22-9-29-9-22-7-15-8-16-15-24-13-18-14-17-14-15-17-17-22-18-12-9-12-8-25-15-26-13-28-11-23-7-25-6-27-4-15-2-26-2-2-2z" fill="#FECB36"/>
</svg>
