<?xml version="1.0" encoding="UTF-8"?>
<svg version="1.1" viewBox="0 0 2044 820" width="1280" height="1280" xmlns="http://www.w3.org/2000/svg">
<path transform="translate(397)" d="m0 0h23l33 3 32 5 27 6 30 9 28 11 33 16 22 13 19 13 12 9 16 13 12 11 8 7 14 14 7 8 12 14 10 13 12 17 13 21 12 22 12 26 9 24 6 18 8 32 5 30 3 32v43l-2 24-4 27-5 24-7 26-10 28-11 25-10 20-15 25-11 16-16 21-13 15-12 13-13 13-8 7-13 11-17 13-10 7-17 11-21 12-24 12-19 8-22 8-28 8-28 6-30 4-34 2-34-1-36-4-26-5-30-8-26-9-21-9-25-12-27-16-16-11-12-9-10-8-14-12-13-12-13-13-7-8-13-15-15-20-12-18-13-22-9-17-11-25-9-24-8-28-6-27-5-35-1-12v-53l3-30 4-24 6-26 8-26 8-22 10-23 10-19 10-17 12-19 9-12 11-14 12-14 9-10 20-20 8-7 12-10 20-15 15-10 13-8 18-10 29-14 26-10 29-9 28-6 23-4 25-3z" fill="#FDFDFD"/>
<path transform="translate(397)" d="m0 0h23l33 3 32 5 27 6 30 9 28 11 33 16 22 13 19 13 12 9 16 13 12 11 8 7 14 14 7 8 12 14 10 13 12 17 13 21 12 22 12 26 9 24 6 18 8 32 5 30 3 32v43l-2 24-4 27-5 24-7 26-10 28-11 25-10 20-15 25-11 16-16 21-13 15-12 13-13 13-8 7-13 11-17 13-10 7-17 11-21 12-24 12-19 8-22 8-28 8-28 6-30 4-34 2-34-1-36-4-26-5-30-8-26-9-21-9-25-12-27-16-16-11-12-9-10-8-14-12-13-12-13-13-7-8-13-15-15-20-12-18-13-22-9-17-11-25-9-24-8-28-6-27-5-35-1-12v-53l3-30 4-24 6-26 8-26 8-22 10-23 10-19 10-17 12-19 9-12 11-14 12-14 9-10 20-20 8-7 12-10 20-15 15-10 13-8 18-10 29-14 26-10 29-9 28-6 23-4 25-3zm-5 43-26 2-31 5-28 7-24 8-24 10-16 8-19 10-24 16-12 9-10 8-13 11-16 15-9 10-12 13-10 13-12 17-13 21-9 16-11 24-8 21-8 26-6 27-5 33-1 13v45l3 30 5 28 7 26 9 26 10 23 12 24 13 21 14 20 14 17 7 8 12 13 9 9 8 7 9 8 13 10 18 13 13 8 17 10 23 11 28 11 26 8 27 6 26 4 25 2h38l28-3 24-4 28-7 21-7 20-8 25-12 18-10 19-12 19-14 13-11 8-7 12-11 10-10 7-8 14-17 8-11 11-16 9-15 12-22 10-23 9-25 6-20 7-34 3-23 1-15v-38l-2-25-5-32-8-32-10-29-11-25-8-15-6-11-12-19-11-15-9-11-11-13-12-13-9-9-11-9-10-9-17-13-15-10-15-9-22-12-24-11-28-10-27-7-26-5-24-3-13-1z" fill="#F88D3D"/>
<path transform="translate(219,230)" d="m0 0 4 2 7 8 19 19 8 7 11 11 1 2h4l7-8 12-13 7-7 7-8 12-12h60l1 178 67 1v-178l1-1 59-1 11 12 19 19 5 6 6 5 7 8 42 42v2l4 1v-93l1-1h58l2 1v204l-2 4-6 5-7 8-27 27-8 7-8 8h-3l-1-99-7-8-1-3-4-2v-2l-3-1-5-5v-2l-4-2v-2l-4-2v-2l-4-2v-2l-4-2v-2l-4-2v-2l-4-2v-2l-4-2v-2l-4-2v-2l-4-2v-2l-4-2v-2l-4-2v-2l-4-2v-2l-4-2-11-11-7-8-1-1-1 193v95l-4 5h-2l-2 4-33 33h-2v2l-7 6-7 8-3 1-1-15v-164h-68l1 181-5-2-55-55-1-3v-288h-2l-2 4-45 45-3-3v-2h-2v-2l-4-2-21-21-8-7-7-8-1-3h-2v132l-1 59-3-1-6-8-16-16-8-7-12-12-14-16-1-2v-203z" fill="#F88D3D"/>
<path transform="translate(411)" d="m0 0 22 1 35 4 36 7 25 7 21 7 22 9 29 14 14 8 19 12 17 12 16 13 11 9 17 16 11 11 7 8 12 14 10 13 12 17 13 21 12 22 12 26 9 24 6 18 8 32 5 30 3 32v43l-2 24-4 27-5 24-7 26-10 28-11 25-10 20-15 25-11 16-16 21-13 15-12 13-13 13-8 7-13 11-17 13-10 7-17 11-21 12-24 12-19 8-22 8-28 8-28 6-30 4-34 2h-5v-40l23-2 50-8 28-7 21-7 20-8 25-12 18-10 19-12 19-14 13-11 8-7 12-11 9-9 7-8 14-17 8-11 11-16 9-15 12-22 10-23 9-25 6-20 7-34 3-23 1-15v-38l-2-25-5-32-8-32-10-29-11-25-8-15-6-11-12-19-11-15-9-11-11-13-12-13-8-8-11-9-10-9-17-13-15-10-15-9-22-12-24-11-28-10-27-7-26-5-24-3-28-2-2-7v-14l-1-21z" fill="#FECB36"/>
<path transform="translate(860,201)" d="m0 0h77l7 14 12 27 13 29 16 36 16 35 11 25 9 21v3h3l2-6 20-45 5-11 16-36 16-35 12-27 13-29 1-1h75l1 3-1 3-25 1-1 301h26v6l-1 1h-87l-13-1-1-5 1-1h26l-1-287-6 12-16 36-30 67-18 40-17 39-7 15-13 29-4-4-8-18-13-29-17-38-18-40-20-45-27-60-1 283h26l1 1v5l-14 1h-45l-1-1v-6h26v-301l-26-1z" fill="#F88D3D"/>
<path transform="translate(1551,201)" d="m0 0h78l5 8 14 26 16 29 14 26 13 23 17 32 10 18 13 24 13 23 10 19 13 23 10 19 10 17 2 6h2l-1-2-1-284-25-1v-6h59l1 5-1 1-25 1-1 297-1 3 27 1v6l-1 1h-77l-5-8-36-66-13-24-12-22-16-29-14-26-13-23-11-21-13-23-12-23-12-22-4-7-1 287h26l1 1v5l-12 1h-46l-2-5 1-2 25-1v-300l-25-1-1-5z" fill="#F88D3D"/>
<path transform="translate(1877,325)" d="m0 0h61l1 1v109l5-3 15-12 16-12 28-22 3-3-9-1-3-3v-1l5-1h31l1 4-1 1h-10l-8 3-28 22-7 5 1 5 14 26 16 29 17 32 3 5v2l16 1v4h-58l-4-1v-3l12-2-16-29-14-26-11-21-5 1-7 5h-2v71l15 1 1 3-6 1h-56l-1-4 16-1v-180l-1-1h-15l-8 2-6 4-3 6-1 4-1 17-1 1h-28l-1-1 1-10 4-10 7-9 9-6 5-2z" fill="#F88D3D"/>
<path transform="translate(1424,325)" d="m0 0 4 1v90h2l3-9 8-11 10-10 12-6 7-2h21l11 4 9 6 8 10 6 13 3 11 1 7 1 17v65l16 1 1 3-2 1h-59l-2-1v-3h16l-1-77-2-16-4-12-6-10-9-6-3-1h-17l-8 4-3 3h-2l-2 4-6 9-5 12-3 18-1 72h16l1 3-2 1h-59l-2-1 1-3 15-1v-181h-11l-5-1v-3z" fill="#F88D3D"/>
<path transform="translate(1310,378)" d="m0 0h25l13 3 12 6 4 1-1-5 3-3 1 1 3 26 1 13v11l-3-1-9-20-7-11-5-6-10-7-9-3h-12l-10 5-8 9-6 12-4 12-2 13v27l4 18 7 14 9 9 10 5 10 2h9l12-2 12-5 9-7 8-8h2l-1 5-8 9-10 7-16 7-10 2h-22l-16-4-13-7-12-11-7-10-5-10-4-14-1-17 2-14 4-12 6-11 8-10 11-9 14-7z" fill="#F88D3D"/>
<path transform="translate(1189,377)" d="m0 0h44l1 1v133l15 1 2 3-1 1h-61l-1-4h16v-130h-15l-1-3z" fill="#F88D3D"/>
<path transform="translate(1829,377)" d="m0 0 44 1v133l16 1 1 3-2 1h-59l-1-5h15v-129h-15z" fill="#F88D3D"/>
<path transform="translate(1733,536)" d="m0 0 18 1v29h26v-29h19l1 1v73l-8 1-12-1v-30h-26v30l-1 1h-18l-1-6v-68z" fill="#F88D3D"/>
<path transform="translate(1980,536)" d="m0 0 36 1 7 2 7 6 2 5v12l-5 6-4 2 10 9 3 8v8l-4 8-7 6-7 2-13 1h-25l-1-1v-72zm18 16-1 13 1 2h8l7-3 1-7-3-5zm0 28-1 1v14l4 2 12-1 4-4-1-9-2-2-4-1z" fill="#F88D3D"/>
<path transform="translate(1856,537)" d="m0 0h19l1 1v38l1 12 3 6 10 2 7-3 2-4 1-44 1-8h19v47l-1 11-5 10-8 6-13 3h-11l-12-3-8-6-4-8-2-12z" fill="#F88D3E"/>
<path transform="translate(979,537)" d="m0 0h34l9 3 5 5 3 4 2 7v9l-3 8-4 5-8 3 6 11 10 15 2 4-1 1h-18l-4-2-9-16-5-8v-2h-2l1 4v22l-1 1-16 1-1-1zm19 15-1 1-1 12 1 7h9l6-4v-11l-4-4z" fill="#F88D3D"/>
<path transform="translate(1205,537)" d="m0 0h25l3 8 21 64v3l-19-1-3-11-1-1h-27l-3 11-2 2-18-1 1-5 12-37 10-31zm12 14-2 6-7 24v3h19l-2-9-6-23z" fill="#F88D3D"/>
<path transform="translate(1089,536)" d="m0 0 42 1 1 2-1 14h-24v13h21l2 1v15l-23 1v11l24 1v16l-11 1h-32l-1-50v-24z" fill="#F88D3D"/>
<path transform="translate(1599,537)" d="m0 0h43l1 3-1 13h-24v13h21l2 1v15h-23v12l24 1 1 15-1 1-19 1h-23l-2-1v-72z" fill="#F88D3D"/>
<path transform="translate(1474,536)" d="m0 0 20 1 4 10 10 31 1 8h2l3-12 13-37h21l-6 16-20 50-4 8-7 1-8-1-10-23-15-38-5-13z" fill="#F88D3D"/>
<path transform="translate(897,535)" d="m0 0h14l10 3 2 3 1 19h-3l-7-5-3-1h-10l-8 5-4 8-1 10 3 9 6 7 5 2h8l8-4 5-4v21l-4 3-11 3-14-1-10-5-6-5-7-11-3-10v-15l4-13 6-8 8-7z" fill="#F88D3D"/>
<path transform="translate(1297,536)" d="m0 0h49l2 1v16l-1 1-14 1-1 56-19 1-1-1v-57l-15 1-1-1v-17z" fill="#F88F40"/>
<path transform="translate(1403,537)" d="m0 0h19v74l-5 1h-12l-3-3z" fill="#F88D3D"/>
<path transform="translate(1214,335)" d="m0 0h10l6 4 4 6v8l-4 7-7 4h-8l-6-3-4-6-1-9 5-8z" fill="#F88D3D"/>
<path transform="translate(1547,515)" d="m0 0" fill="#FDFDFD"/>
</svg>
