<?xml version="1.0" encoding="UTF-8"?>
<svg version="1.1" viewBox="0 0 1600 1147" width="1280" height="1280" xmlns="http://www.w3.org/2000/svg">
<path transform="translate(0)" d="m0 0h1600v1147h-1600z" fill="#FCFCFC"/>
<path transform="translate(0)" d="m0 0h782l-1 2 1 2 2 17v21l-2 21 1 9-1 15-2 7v34l-1 4v14l-3 12-1 16-1 5 2 1-2 12-2-2v6l1 2h-2l2 4-1 18 1 11-2 7v11l-1 8v11l-1 2-2 13-2 3-4 18-6 10v10l2 2-1 5-4 2-5-2-1 1v7l3 8 2 5-5 1v13l3 3 1 7 4 4v10l-2 22-6 18 6 1 2-5 3 1 1-25 3-3 1 3 6 1 2 4 1 26 3 6-4 4-6 4-3 8v9l6 7 1 3v14l-2 11-7 1-1 11-4 11h-11l1 5 8 6 8-1 3 2-3 7h-2l1 3 4 3v3l2-2-1-4 2-9h1l3 16v11l3 10 4 1 3 5 1 9 6 23 2 8 2 2v24l3 16 2 8-1 11 2 32 1 5-1 8 2 8v87l-2 4-1-2v12l1 16 1 40 1 124 1 11v23l-1 9v79l-1 2v10h-798z" fill="#F0F7F2"/>
<path transform="translate(63,481)" d="m0 0 38 5 41 10 17 3 7 2 35 4 25 7 10 4 4 1 15 4 3 1v2l9 2 21 5 7 3 51 8 9 2 30 6 21 7 10 6 10 5v2l4 2 11 7 14 12 7 10 5 5 9 7 5 4 5 5 14 7 8 3 9 3 15 2 22 1 5 1 12-1h11l7-1h23l13-2 23 1 15 4 10 4 6 7 6 3 9 9 10 15 7 12 7 15 6 21 3 26 2 15 1 1 1 8 1 1v10l1 1 2 14 2 6 2 10 1 17v11l4 57v15l4 58 2 47 1 10 1 29v30l-1 29-2 16-2 9-3 1h-744v-611l1-29 5-5h2l2-4 14-8 14-5 7-2z" fill="#4A5719"/>
<path transform="translate(0)" d="m0 0h380l320 1 5 5 4 7 4 18v23l-2 17-4 20-3 14-5 17-8 15-8 12-8 6-9 6-5 3-17 3-35 1-14 2h-38v2h-6v4l11 1 1 1 19 1 15 3v2l5 1v-2l10 1-1 2-5 1h-17l-6 2-16 1-4 1h-10l-17 1-1 4-2 1-14 1-7 2-5 1-1 2-6 1-1 2-3-1v-2l-6 2-3 5-5 3-4 4-4 1-4 8-12 11-10 4-20 9-16 6-15 7-12 5-21 9-27 10-35 9-27 3-26 5-15 4-23 9-19 10-10 5-5 3-7 3-35 16-15 6h-3l-19 9-10 5h-3l-6 3h-5l1-3-1-3-2-1 17-9 4-5-6 2-3-1-15 6-8 1-4 1h-15l-12-2-9-4-5-4 4 10 9 6 1 3v5h-3l-4-1v-2l-4-2-7-3-5-4v-2h-2l-4-8-1-36z" fill="#A0D5E1"/>
<path transform="translate(63,481)" d="m0 0 38 5 41 10 17 3 7 2 35 4 25 7 10 4 4 1 15 4 3 1v2l9 2 21 5 7 3 51 8 9 2 30 6 21 7 10 6 10 5v2l4 2 11 7 14 12 7 10 5 5 9 7 5 4 5 5 14 7 8 3 9 3 15 2 22 1 5 1 12-1h11l7-1h23l13-2 23 1 15 4 10 4 6 7 6 3 9 9 10 15 7 12 7 15 6 21 3 26 2 15 1 1 1 8 1 1v10l1 1 2 14 2 6 2 10 1 17v11l4 57v15l4 58 2 47 1 10 1 29v30l-1 29-2 16-2 9-3 1h-35v-1h8l3-11 3-14 1-7v-43l-2-29-3-30-2-13-8-59-1-14-4-24-4-18-6-32-4-14-3-15-2-13-4 5-8 17-4 1-5 5-4-3h-5l-2-4-2-1h-11l-17 6-2 1h-7v2l-18 5-2 2h-5v2l-9 1-5-1-10 3-18-1-5 2h-17l-21-5-10-2-18-2-9-2h-10l-21 3h-18v-2l-10 4-10 1h-6l-4 3-12-2-4-1-5-4-10-1-8-7v-2l-5-1-6-6-15-7-10-3-8-4-21-5-3-3-5-10-1-7 1-6v-11l2-7-3-1 4-12-2-19-3-9-2-5-5-2-3-4v-2l-5-2-8-7-9-3-9-4-6-3-8-6-8-4-4-5-8-3-9-6-10-6-10-5-15-9v-2l-6-2-34-17-13-8-12-9-11-8-7-8-6-6-9 2-5 2-2 4h-2l-1 5h-2v2l-3 3h-2l-1 4-6 9-7 11-7 15-4 15-3 24-1 15v22l1 7-1 10-1 33-1 14-1 28-1 43-1 35-3 28-1 4-1 226h-1v-611l1-29 5-5h2l2-4 14-8 14-5 7-2z" fill="#A2A84A"/>
<path transform="translate(380)" d="m0 0h360l6 2 5 8 1 31-2 21-3 28v8l-3 21-1 12-4 25-5 17-4 15-5 29-1 3-1 11-4 17-3 12-7 15-4 7-11 9-19 8-12 2-14 1-21-4-16-1-10-2-10-1-1 1h-5l-1-1-18-2-4-2-8-1h-12l-9-4-19-1h-32l-13 2-8-1-4 3-13 1-2 3-12 2-10 4-10 1-5 3-3 3-17 8-5 5-2 5-6 3-5 6-8 7-2 4-17 9h-2l-1 5-4 2h-8l-4 4 9-3 2 2 2 7 2 2-4 3-12 3-1 4-4 3-2 6-9 2h-9l-13 4-4 6-3 2-9 1-1-5-4 2-6 2-1 4-5 2-4-1-5 2-2-5-5 2-5 3-3 3-5 3-4 2-5-1-2-3-10 5-4 4-6 1-2 1h-9l1-5-5 1-7 5-4 2h-3l-2 7h-2v2h5l1 3-9-1-8-3v3l-7-1-6-3 1-4 2-3h6l1-4h-6l-1 3h-3l-2 3-9-1-2 3-1-1h-7l-2-1 3 5 6 3 11 4 1 5 7 4 21 6 37 6 18 5 37 7 14 1 11 3 18 2 23 3 27 3h11l6 2 16 3 16 2 16 5 17 4 18 7 9 4 11 5 10 4 11 5 8 3 19 7 9 3 13 4 10 2 11 1 26 1 34 2 7 1 19 1 5 1 14 1 19 4 19 6 12 7 11 8 5 3 9 13 5 12 6 17 4 14 3 10 6 27 5 30 4 40 1 30v102l-1 2v15l2 77 2 69 1 57-2 31-2 8-2 9h-23l3-1 1-9 2-16 1-39v-21l-1-28-1-10-2-47-4-58v-18l-4-57v-14l-2-16-2-10-2-5-1-10-1-3v-8l-1-1-1-8-2-5-2-20-3-21-6-20-8-16-7-11-9-13-8-8-6-3-5-6-17-6-8-2-24-1-12 2h-24l-9 1h-10l-13 1-2-1-22-1-15-2-9-3-10-4-8-4-9-6-5-5-10-8-5-5-7-10-10-9-18-12v-2l-6-2-14-8-21-7-30-6-9-2-13-2-38-6-11-4-21-5-5-2v-2l-5 1-2-2-13-3-4-2-21-7-12-3-35-4-11-3-22-4-32-8-21-3-17-2-18 2-16 5-16 8-5 5h-2l-1 3-3 2-1 29h-1v-215h1l1 36 3 5v3h2l5 5 3 2 2-1v2l12 6v-7l-10-7-4-9 1-2 8 6 10 3 8 1h15l10-2 9-3 10-3h4l4-1-3 5-9 6-9 4 3 5 1 1 10-4h3l23-11 7-3h3l16-7 31-14 9-4 9-5 28-14 18-7 15-4 26-5 27-3 27-7 16-5 24-9 19-8 9-4 22-10 16-6 17-8 7-3 11-10 4-8 7-2 1-3 5-2 2-5 3-2h4l3 3 1-3h6l1-3 9-2 3-1 14-1 2-1 1-3 3-1 14-1h13v-1l17-1 6-2h17l5-1-9-2v2l-5-1v-2l-12-1-3-1-19-1-1-1-11-1-1-4-2-1 7-1 2 1v-2l8-1h30l14-2 35-1 17-3 13-8 7-6h2l2-5 7-10 7-15 6-22 4-23 2-12 1-8v-23l-4-18-6-9v-2l-322-1z" fill="#D7EBEA"/>
<path transform="translate(63,585)" d="m0 0 4 1 17 17 11 8 10 7 13 8 12 5 5 3 20 10v2l5 2 15 9 7 3 9 6 12 7 5 2 3 3 5 4 9 5 3 3 13 5 3 2 7 2 11 9 11 11 4 8 2 10 1 14-4 11 2 1-1 10v8l-1 9 4 10 4 6 24 6 8 4 12 4 11 6 7 6 3 1 4 5 4 3 10 1 6 5 10 1 5 1 4-3h12l12-4h2v2l10-1h8l12-2 9-1h10l14 3 21 2 13 4 10 2h17l7-2 17 1 9-3 7 1 3-1 4 1v-2l6-2 8-3 11-2v-2l9-2 17-6h11l4 4v2l6-1 3 3 4-2 2-4 4-3 8-17 4-2 4 24 4 16 6 28 4 22 4 20 4 37 6 43 3 24 3 31 1 24v36l-3 18-5 14-8 1h-35v-1l20-1 1-3h2l2-5 5-11 2-5 2-20v-17l-3-30-4-16-5-21-4-15-6-26-7-21-2-9-3-5-6-9-6-7-2-3-6-3-4-1-7 3-13 2h-18l-16-3-13-2-7-3-7-1-20-6-14-3-29-3h-17l-16 2-32 8-2 1-9 1-2 1-18 1-2-1-1 2h-21l-17-3-10-2-6-5-11-4-3-3-16-8-9-4-5-3-7-2-14-1h-7l-7 3-14 3-15 5-13 2-7 1-14-1-8-4-6-6-2-5-1-6v-8l-4-2-3-27-2-9-2-12-7-17-5-6-4-4-2-3v-6l-8-5 1-4-5-2-3-2-3-13v-4h-2l-1-2v-6l4-8-1-5 4-6-2-1v-7l-4-10-4-5-2-4-3-1-1-4h-2v-3h-2v-3l-5-2v-4l-9-2-9-3-3-2v-2l-5-2-6-1v-3l-5-1-2-1v-2l-5-1-5-3-6-2-6-1-6 1-7 3-9 13-4 9-4 38-1 9h-3l-1 4h-2l1 5-2 7-3 2-1-3 1 7 4 4 2 8 2-1v12l-5 97-1 16-6 37-3 22-2 10-2 18v38l1 18 3 23 1 12v54l2 16 6 12 1 1 25 1v1h-51v-226l2-15 2-17 2-68v-13l1-32 1-10 1-31 1-11-1-7v-25l3-29 3-11 2-9 7-15 7-11 7-10 1-3h2l1-3h2v-2l2-1 1-4 6-5 5-3z" fill="#7F8335"/>
<path transform="translate(63,481)" d="m0 0 38 5 41 10 17 3 7 2 35 4 25 7 10 4 4 1 15 4 3 1v2l9 2 21 5 7 3 51 8 9 2 30 6 21 7 10 6 10 5v2l4 2 11 7 14 12 7 10 5 5 9 7 5 4 5 5 14 7 8 3 9 3 15 2 22 1 5 1 12-1h11l7-1h23l13-2 23 1 15 4 10 4 6 7 6 3 9 9 10 15 7 12 7 15 6 21 3 26 2 15 1 1 1 8 1 1v10l1 1 2 14 2 6 2 10 1 17v11l4 57v15l4 58 2 47 1 10 1 29v30l-1 29-2 16-2 9-3 1h-21l4-2 3-10 2-12 1-11v-33l-1-23-2-24-5-45-1-18-1-9-1-16-1-2-2-28-4-30-4-24-3-26-1-2-3-32-4-10-3-12-3-15-2-1-2-13-2-4-2-8-8-15-8-9-6-4-13-5h-94l-36-1h-22l-50-3-26-1-11-1h-12l-39-4-14-2-5-2-22-5-9-3-7-4-6-2-7-3-5-5-4-3v-2l-5-2-11-8-5-5-6-3-1-4-3-1v-2l-6-2-5-5-6-7-4-13v-13l-1-15-5-13-6-7v-2h-2l-1-4 5-1h6l1-3 17-1 1-1-18-7-10-4-28-9-9-2-25-7-7-2v-2l-10-1-16-3-16-4-16-3-10-1-14-2-19 2-16 6-5 2v2l-7 5h-2l-2 4-7 10-6 12-1 134h-1v-145l1-29 5-5h2l2-4 14-8 14-5 7-2z" fill="#C5CA81"/>
<path transform="translate(851,683)" d="m0 0h690l3 3v84l-2 4-2 1h-689l-3-4v-84z" fill="#C8E390"/>
<path transform="translate(851,568)" d="m0 0h689l3 3 1 2v83l-4 4h-688l-4-3v-86z" fill="#C8E390"/>
<path transform="translate(851,454)" d="m0 0h690l3 4v85l-4 3h-688l-3-3-1-3v-83z" fill="#C8E390"/>
<path transform="translate(852,340)" d="m0 0h689l3 3v85l-3 4h-690l-3-4v-84z" fill="#C8E390"/>
<path transform="translate(851,876)" d="m0 0h691l2 3v84l-4 4h-690l-2-2v-86z" fill="#233F01"/>
<path transform="translate(241,969)" d="m0 0 3 1 1 2 7 1 4 1 3-2 13-1h6l-1-2 11 1 8 4v2l5 2 2 2 10 4 8 3 6 3 21 3 8-1 9 10-1 4 7 9 1 7-1 4 1 6v29l2 9 3 5 1 4 2-1 8 16 5 6 4 2v2l-2 1 2 5 6 1-5 6 6 1-1 2 26 1 1 1 9-2h7v1l25-1 1-1 21-3 4-2h8l11 1h2l-2-2 5-2-4-1-5-1v-2h-3l1-3 1 1 2-5 3 3 1 2 1-2 1-15-4-8-3-4-3-8-2-9-6-8-1-7-3-14-4-2 2-10 1-8-3-4 2-4 4-6v-2l-6 1-5-3 3-5h5l4-5 3-1 3 1 1-2 4 1 4-3 4 2 3 1 12-2 2-1h19v-2l16-2 8 1v-3h5v-2l9 1 9 2 5 1 9 2 10 4 15 3 12 5v2l3 1 4 4v2h2l3 5 2 5h2l3 7 3 11 2 6 4 14 4 23 1 10v30l-1 7-2 4h-2l-2 5-1 2h-2l-2 4-5 4-6 4-17 4h-12l-12-2-38-3-6-1-27-3h-8l-10-4-20-3-5-2h-25l-4 1h-17l-6 1h-10l-13 3-15 1-13 1-8 2-30-1h-32l-21 1-17 3h-12l-26 1-9 2-48 1h-36l-39-3h-57l-9-1-7-4v-2h-2v-2l-4-2-3-6 1-7h2l1-4h2v-6l4-4h4l5 1v2l7 1 3 1 14 1 9 1 7-2 15-2 7-1 17-7 6-1 16-12 4-2 2-6 5-5 6-7 5-4 5-7 3-6 3-3 1-5 4-6 1-6 4-9 3-7-1-2v-2l-4 1 3-10 9-10h2v-2l6-5 3-3h2v-2l5-3z" fill="#4A501B"/>
<path transform="translate(61,652)" d="m0 0h8l3 2 7 2 8 4v2l7 2v3h6l5 3 3 3 5 2h4v2l9 2 1 4 4 2v3h2v3h2l1 4 4 1 7 11 3 8-1 7 3 1-4 6 1 6h-2l-1 5-1 2v8h2l4 17 7 4-1 4 5 2 4 3v6l3 5 6 5 5 10 5 13 2 13 3 25 1 7 3 2 2 14 3 6 7 6 5 2 16 1 11-2 9-2 20-6 10-2 4-2h12l12 2 7 3 9 4 15 8 5 3 8 4 7 3 3 3 20 4 7 1h21l3-1 18-1 2-1 9-1 12-4 12-2 5-2 21-3h17l29 3 18 4 20 6 5 1 10 3 11 2 13 2h18l13-2 7-3 4 1 8 5 3 5 4 4 4 6 6 11-1 3 2 1 3 11 5 17 6 26 6 21 4 17 2 9 3 30v17l-2 20-5 12-5 9h-2l-1 4-20 1h-622v-1l388-1 15-3 21-2 28-1 23 2 5 1 3 3 136 1v-2l10-8 5-6 6-11 2-7 1-12v-18l-2-24-4-20-5-17-2-17-5-11-4-7-6-7v-3h-2l-5-5v-2l-6-2-4-3-16-4-16-3-6-3-12-3-10-2-15-4-7-3-19-5-4 1-11-1h-11l-1 1h-11l-9 1-11 3-11 4-15 2-10 2-18 2h-23l-9-1h-15l-4 1-16-2-7-2-15-3-7-3-9-3-12-6-7-4-9-5-12-3h-7v-2l-10 2-8 1-9 2-10 2-10 3-14 5-7 1-6 3h-8l-13 2-4 2-9-2-6-1v-2h-5l-6-9v-4h-2l-2-12-2-1-1-12-1-1-1-16-3-7-3-9-7-9-13-4-6-1-1-3-16-5-7-3-7-2-8-6-3-3-4-10-9-12-1-4-3 5-5 5-2 13-1 1-2 11-2 15-4 15-2 5-2 8-5 16-2 9-4 4-5 10-1 3-4-1 3-22 3-19 3-52 3-59v-10l-3-3-2-7-1-2-2 2v-5h-1v-7l2 2 1-5 2 2 1-8 2-1 1-3h3v-10l3-27 1-10 4-9 9-13 5-3z" fill="#66702C"/>
<path transform="translate(46,446)" d="m0 0h20l9 2 29 6 16 5 16 6 21 6 15 4 9 3 8 2 4 2 26 4 11 4 18 3 10 3 7 1 9 3 15 2 13 3 17 3 24 3 31 3 35 7 17 5 12 5 16 6 16 8 18 8 20 8 23 8 31 4 21 1 39 1 24 2 21 4 13 4 10 4 13 9 8 8 7 10 4 7 6 15 8 29 5 17 6 30 3 24 1 26v25l2 29v16l1 5 1 28 1 6 1 27v15l2 21 1 50v32l1 13v92l-2 18-3 6h-12l3-1 1-9 2-16 1-39v-21l-1-28-1-10-2-47-4-58v-18l-4-57v-14l-2-16-2-10-2-5-1-10-1-3v-8l-1-1-1-8-2-5-2-20-3-21-6-20-8-16-7-11-9-13-8-8-6-3-5-6-17-6-8-2-24-1-12 2h-24l-9 1h-10l-13 1-2-1-22-1-15-2-9-3-10-4-8-4-9-6-5-5-10-8-5-5-7-10-10-9-18-12v-2l-6-2-14-8-21-7-30-6-9-2-13-2-38-6-11-4-21-5-5-2v-2l-5 1-2-2-13-3-4-2-21-7-12-3-35-4-11-3-22-4-32-8-21-3-17-2-18 2-16 5-16 8-5 5h-2l-1 3-3 2-1 29h-1v-66l1-7h3l10-6 2 2 9-5 10-5z" fill="#E4E5C0"/>
<path transform="translate(63,803)" d="m0 0h1l2 6 7 10 2 2 3 9 7 6 5 3 11 3 8 3 10 4v3l11 1 9 4 7 9 6 18 1 14 1 1v12l3 1 1 12h2l3 7 4 5 5 1v1l12 2 3 1 3-2 17-2 6-1 4-2 10-2 11-4 13-4 16-3 9-1 2-1h7v2l7-1 14 4 10 6 16 8 9 3 10 4 17 3 7 2 12 1 4-1h20l3 1h27l22-3 2-1 15-2 13-5 9-2 10-1h10l1-1h17l6 1 3-1 21 6 11 4 9 2 10 2 14 4 8 3 25 5 6 3 7 4v2l4 2 1 3h2l3 5 4 5 4 7 5 11 2 17 4 12 2 9 4 24 1 16v18l-1 12-3 10-7 11-7 7-5 4h-2v2h-136l-4-3-13-2-14-1-28 1-21 2-15 3h-413l-5-7-4-11-1-12v-54l-3-29-1-6-1-18v-38l3-26 2-10 2-11h4l1-6 6-9 3-5 4-17 3-7 2-9 3-8 2-9 2-15 2-11 1-1 2-13 5-5zm21 77-14 2-9 4-9 8-5 16-5 10-1-2-4 1-1 3h-2l-3 7-3 16-2 19-1 13 1 30 2 20 2 14 2 15 2-3 2 4 1-2 2 2 1-3v27l-1 16 1 12 4 10 5 8 3 1v2h2v2l7 4 9 1h57l40 3h35l48-1 10-2 37-1 17-3 31-1h30l22 1 8-2 16-1 12-1 13-3h14l6-1h13l4-1h25l5 2 20 3 10 4h9l29 3 13 2 31 2 9 2h12l17-4 10-7 3-3v-2h2l3-5v-2h2l2-4 1-7v-30l-3-23-4-18-2-6-3-10-3-9-2-5h-2l-2-5-3-5h-2v-2l-5-5h-2v-2l-16-6-13-3-9-3-10-2-3-1-9-2-9-1v2h-5v3l-9-1-15 2v2h-20l-1 1-13 2-4-3-5 2h-3-2l-1 2-4-1-5 5-4 1-4 2v2l-8-1-4-2h-3l-6-1-6 1-12-3-17 1-20-2-18-1-3 2h-11l-13-5-9-4-7-3-4 1 1-3-3-1-6-1v-3l-12-4-12-2-10-4-10-5-10-3h-15l-15 2h-8l-16 5-7 3-3 2h-4v2l-4 1-10 7-7 4v2l-5 2-1-2-13 10-9 6-5 3-4 7-1 4-1 1v6l-4 2-12 5-3 2v3h-10v-21l-2-10-4 1 2-3v-9l-2-12h-2v-5-4l1-11 2-4 2-11 1-19-2-13-7-11-9-9-8-3-13-1z" fill="#5D6323"/>
<path transform="translate(268,982)" d="m0 0h21l7 3 9 3 9 6 5 4 1-2 6 5 6 3 10 9 4 1 5 10v2h6l2 9v17l1 10h-2l3 9 2 9 10 24 1 2v6l-2 7 7 1 2 2-3 5-3 4-13 1h-27l-21 1-17 3h-12l-26 1-9 2-48 1h-36l-39-3h-57l-9-1-7-4v-2h-2v-2l-4-2-3-6 1-7h2l1-4h2l1-2 3 7 8 7 9 3 22 1h20l11-1-14-3-1-2h6l-6-4v-2h10l5-4 16-8 16-9 9-7 8-6 5-4 3-4h2l2-5 9-10 4-6 6-7 7-12 1-4 8-16 10-13 9-7 10-5 5-1h6z" fill="#474C1B"/>
<path transform="translate(102,453)" d="m0 0 14 1 7-1h8l11 3h10l13 3 31 5 18 5 37 7 14 1 11 3 18 2 23 3 27 3h11l6 2 16 3 16 2 16 5 17 4 18 7 9 4 11 5 10 4 11 5 8 3 19 7 9 3 13 4 10 2 11 1 26 1 34 2 7 1 19 1 5 1 14 1 19 4 19 6 12 7 11 8 5 3 9 13 5 12 6 17 4 14 3 10 6 27 5 30 4 40 1 30v102l-1 2v15l2 77 2 69 1 57-2 31-2 8-2 9h-11l3-12 1-12v-98l-1-9v-44l-1-36-2-23v-13l-1-27-1-6-1-30-1-9-1-28-1-11v-28l-1-23-3-24-6-30-7-24-6-22-7-18-8-11-9-10-10-7-10-5-11-4-20-4-21-2-9-1-39-1-31-2-21-3-31-11-19-8-11-5-21-10-22-8-8-3-19-5-26-5-41-4-26-4-16-3-2-1-19-3-5-2-14-3-13-3-12-2-7-3-26-4-6-3-13-3-4-2-21-5-16-5-13-5-16-5z" fill="#E5EED4"/>
<path transform="translate(209,679)" d="m0 0 5 2 6 3 8 6 13 5 3 2 7 2 11 9 11 11 4 8 2 10 1 14-4 11 2 1-1 10v8l-1 9 4 10 4 6 24 6 8 4 12 4 11 6 7 6 3 1 4 5 4 3 10 1 6 5 10 1 5 1 4-3h12l12-4h2v2l10-1h8l12-2 9-1h10l14 3 21 2 13 4 10 2h17l7-2 17 1 9-3 7 1 3-1 4 1v-2l6-2 8-3 11-2v-2l9-2 17-6h11l4 4v4h-3l-1 2-6 1-1 1-27 5-2 1 3 2-2 1 3 3-1 1 3 3-1 1 7 3-2 3 7 2-2 2 7 3-3 4-16 8-3 2h-11l-10 2-19-1-26-6-2-1h-10l-19-3-6-2-15-1-4-1h-30l-11 2-20 4-5 2-8 1h-27l-2 1h-8l-6-2h-6l-3-3-9-5-5-2-3-2-4-2-5-5-13-6-10-3-4-3-11-3h-10l-12 2h-9l-11 3h-14l-12-4-7-6-2-7-1-7v-11l-1-4 2-3 2-18v-9-4l-1-3v-11l2-6 2-11v-10l-3-11-4-6-6-4-4-6v-2h-2v-2l-6-2v-3l-5-2-13-12-6-3-2-4 6 1 2-1 13 2h8z" fill="#93973D"/>
<path transform="translate(125,691)" d="m0 0h4 6l1 4 4 1 7 11 3 8-1 7 3 1-4 6 1 6h-2l-1 5-1 2v8h2l4 17 7 4-1 4 5 2 4 3v6l3 5 6 5 5 10 5 13 2 13 3 25 1 7 3 2 2 14 3 6 7 6 5 2 16 1 11-2 9-2 20-6 10-2 4-2h12l12 2 7 3 9 4 15 8 5 3 8 4 7 3 3 3 20 4 7 1h21l3-1 18-1 2-1 9-1 12-4 12-2 5-2 21-3h17l29 3 18 4 20 6 5 1 10 3 11 2 13 2h18l13-2 7-3 4 1 8 5 3 5 4 4 4 6 6 11-1 3 2 1 3 11 5 17 6 26 1 7-1-2h-2l-1-2-3-1-2-4-4-4-7-25-4-9-9-14-6-5-4-3-20-2-13-1-14-4-13-2-10-4-13-5-22-8-17-4-9-1h-14l-13 3-10 4-11 6-9 3h-10l-13 2-8 1-25 1-3-1h-10l-3 1h-10l-18-2-10-1-9-2h-8l-12-5-5-4-9-4-6-5-11-4-17-3-2 1-15 1-12 5-17 4-13 4-8 1h-10l-8-2-10-5-3-5v-2l-4-1-4-16 1-7v-26h2l-3-9-4-10-3-6v-3l-4 1-9-3-17-8-1 3-6-2-5-1-5-5-5-2-3-7-4-5-7-14-3-4-3-7-2 2-6-9-4-9-4-10 3-14 1-3h2l1-4 6-7 7-6h4v-6h5l4-7h3l1-3h4v-2h4v-4l4 1z" fill="#777A2D"/>
<path transform="translate(180,681)" d="m0 0 3 3 5 2 8 8 8 6 2 1v3l6 2v2h2l5 8 7 5 4 7 2 9v10l-3 14-1 3v11l1 3v4 9l-2 18-2 5 1 3v10l2 12 5 5 4 3 10 3h14l11-3h10l12-2h10l12 4 2 2 15 5 11 6 4 5 4 1 2 2 7 3 8 5 1 1h8l4 2h8l2-1h29l9-2 16-4 9-1 8-2h30l16 2 7 1 9 2 13 2h9l28 7 20 1 9-2h11l8-5 12-6v-2l-6-2 2-3-7-2v-3l-5-3 1-2-3-2v-2l-2-2v-2l-1-2 18-4 12-2 3-2 8-1v-2l6-1 3 3 4-2 2-4 4-3 8-17 4-2 4 24 4 16 6 28 4 22 4 20 4 37 6 43 3 24 3 31 1 24v36l-3 18-5 14-8 1h-35v-1h23l1-4 6-12h2l1-7 2-11 1-27-1-24-2-24-2-17-4-16-2-16-15-59-5-12-3-9-4-9-4-8-4-7-4-4-1-2-9-4v-2h-2l-1 3h-2v5l-9 7h-2v3h-2l-2 4-8 7-7 2h-7l-1 1 3 1-8-1h-11l-9-1-8-3-2-2-10-2-7-3-29-7-13-4-17-2h-9l-22 4-9 3-8 5h-3v2l-7 3-3 2-4 2-12 1-14 1-25-1-14-5-7-4-9-4-4-3v-2h-2l-4-4-7-4-8-6-15-6-5-1v-2l-23 3h-6l-23 7-11 1-16-1-7-4-1-4-3-1-6-15-2-7v-16h2l-1-10v-13h-1l-1-8v-25l-2-6-1-13-1-10-2-5-2-8-4-7-1-8-1-3-4-1v-2h2v-2h-2v-4l-3-5-4-3v-4l-2-5z" fill="#868E38"/>
<path transform="translate(66,503)" d="m0 0 17 2 12 2 25 5 11 3 17 3v2l7 1 25 7 15 4 31 10 12 5 9 4-1 2h-10l-9 1-1 2-10 1v4h2l6 8 5 10 1 4 1 17v11l4 13 7 8v2l5 2 4 2 4 5v2l6 2 7 7 9 6 5 3v2l4 2 5 4 1 3h-8l-8-2-9-2-8-2-10-1-5-2-6-1-10-4-13-8-12-6-7-6-6-3v-2l-5-2v-2l-5-2-6-5-5-5-10-14-4-13-6-12-5-1-7-6-8-4-9-4v-2l-9-3-10-6v-2h-6v-2l-8-1-5-2-7-3-14-1-10 4-11 9-9 14-6 17-2 9-3 12-3 8-7 20-3 10-3 19-2 18-1 464h-1v-466l1-134 9-17 7-9 7-5h2v-2l12-6 9-3z" fill="#ACB074"/>
<path transform="translate(63,585)" d="m0 0 4 1 17 17 11 8 10 7 13 8 12 5 5 3 20 10v2l5 2 15 9 7 3 9 6 12 7 5 2 3 3v3l-4 2h-9l-11-2-2 1-7-2-8-4-4-3-7-3-2-2-7-3-2-2-7-1 1 3h-2v3l-4 2 1 4-3 3h-3v2l-5 1-10-4-6-1-5-3v-2l-5-2-6-1v-3l-5-1-2-1v-2l-5-1-5-3-6-2-6-1-6 1-7 3-9 13-4 9-4 38-1 9h-3l-1 4h-2l1 5-2 7-3 2-1-3 1 7 4 4 2 8 2-1v12l-5 97-1 16-6 37-3 22-2 10-2 18v38l1 18 3 23 1 12v54l2 16 6 12 1 1 25 1v1h-51v-226l2-15 2-17 2-68v-13l1-32 1-10 1-31 1-11-1-7v-25l3-29 3-11 2-9 7-15 7-11 7-10 1-3h2l1-3h2v-2l2-1 1-4 6-5 5-3z" fill="#818558"/>
<path transform="translate(216,508)" d="m0 0h17l6 1 19 3 31 5 17 3 16 3 9 1 21 2 12 2 11 1 27 6 13 4 21 8 21 10 19 10 16 8 12 7 21 8 26 5 15 1h27l48 3 3 1 18 2 14 6 14 10 8 8 7 11 5 9 8 15 8 22 4 10 3 13 3 20 2 11 1 9 1 47v18l-1 7h-1l-3-15-2-5-1-10-1-3v-8l-1-1-1-8-2-5-2-20-3-21-6-20-8-16-7-11-9-13-8-8-6-3-5-6-17-6-8-2-24-1-12 2h-24l-9 1h-10l-13 1-2-1-22-1-15-2-9-3-10-4-8-4-9-6-5-5-10-8-5-5-7-10-10-9-18-12v-2l-6-2-14-8-21-7-30-6-9-2-13-2-38-6-11-4-21-5-5-2v-2l-5 1-2-2-13-3-4-2-18-6z" fill="#DDDFA9"/>
<path transform="translate(344,466)" d="m0 0 6 1 9 2-3-2 12 1 5 2v-3l8 1 9 1-1-2h5l5 3 11 2h6l9 4 4 2 10 2 5 3 7 3 9 7 20 8 16 8 14 5 13 5 10 2 17 2h10l3 1v2l10-2 6 1h29l29 3 22 1 1 1 9 1 2-1 14 2 3 2 9 1v2h2v2h9l8 4 9 3 5 4 5 7 7 6 3 5 5 5 6 7 4 12 5 9 3 10 2 10 2 7 1 12 3 9 1 14 3 25 2 12 2 26v75l-1 8 1 29v38h-1v18l-1 12v9h-2l-1 2-2-13v-18l-2-9h-1l-2-13v-14l-2-10-2-28v-35l-1-30-4-40-3-18-5-25-5-22-4-11-4-14-7-19-9-12-2-3-7-4-13-9-11-5-17-5-16-3-14-1-5-1-19-1-20-2-41-2h-10l-15-3-13-3-10-3-9-4-11-4-12-5-13-5-11-5-7-4-16-6-15-5-16-4-15-4-16-2-25-5-6-2-14-4-10-4-10-2-1-2 9-1-1-2 5 1 6 1v-1l14 1 4-1 9 2h6l-12-4z" fill="#F4F7EA"/>
<path transform="translate(84,880)" d="m0 0h10l9 2 7 3 6 7 4 4 5 8 2 15-1 17-2 7-3 3-3 6-7 2v-2l-3 1-2 6-4-1-1 9-5 20-7 21-8 16-5 9-3 7-3 8-4 6v9l4 6 5 3 5 6 9 4 8 2h15l9-2 6-1 4 1 8-4 7-4 6-4 5-5 11-10 2-4 5-4 5-5 7-9 8-11 7-11 6-8 4-1-1 5 1 2-5 9-3 9v5l-5 5-1 5-4 5-4 7-6 7-5 4-6 8-2 2-2 4-13 10-9 6-7 1-17 7-10 1-12 2-9 1-4-1-14-1-10-3v-2l-4 1h-3v-2l-4 2-2 8-2 1-1 3h-2v5l-2 1-4-10-1-19 1-9v-27l-2 3-1-2-2 2-1-4-2 3-2-17-2-12-2-20-1-31 2-25 3-17 3-10 1-2h2l2-4h3l1 2 5-10 5-16 5-4 4-4 9-4z" fill="#50541C"/>
<path transform="translate(1189,69)" d="m0 0h21l19 6 3 3 8 4 14 14 7 11 6 15 2 11v16l-3 15-3 8-1 4 5 2 1 3-17 9-16 6-24 4h-29l-26-4-24-9-8-4 1-3 5-3-1-6-5-17-1-6v-16l3-14 4-9 6-10 9-10 9-8 8-5h4v-2l15-4z" fill="#FAFAF8"/>
<path transform="translate(122,943)" d="m0 0h2l-1 6-1 2-1 11v4 5h2l2 12v9l-2 3 4-1 2 10v21h10v-4l11-4 6-4h2v-6l2-2 1-6 5-5 10-7 9-6 7-5v2l5-2v-2l16-10 2-2h3l1-2 4-1 5-3 17-5 8-1 14-1 10-1h9l15 5 11 6 7 2 12 2 9 3v3l6 1 3 1-1 3 5-1 10 5 14 6-1 2-6 3-5 1 2 2-8 1h-3l-11 1-18-3-7-4-7-2-11-5-6-4v-2l-4-1-4-2h-6-3v1h-12l-10 2-3 1-4-2h-7v-3l-9 2-3 1v2l-4 1-2 4-3 3h-2v2l-8 7-3 5-4 11-9 14-8 11-8 10-5 5-5 4-3 5-12 11h-2l-2 4-11 6-6 4-4 1-7-1-5 2-6 1h-15l-13-4-6-4-5-6-4-2-4-6v-9l5-7 4-13 4-6 6-11 7-17 3-11 3-9 5-22h2l1-2 2-3 2-2 2 1v2l7-3z" fill="#515917"/>
<path transform="translate(61,542)" d="m0 0 14 1 7 3 9 3 4 1v2h6v2l6 2 4 3 7 3 2 1v2l9 3 11 6 2 4 7 2 6 9 6 18 8 11 5 4v2l4 2 7 5v2l5 2 1 2 8 4 7 6 14 7 10 6 8 3-1 3-7 1-2-1v2l-6 3h-3-6l-2 3h-8l-15-9-9-6-8-3-9-6-7-4v-2l-6-2-34-17-13-8-12-9-11-8-7-8-6-6-9 2-5 2-2 4h-2l-1 5h-2v2l-3 3h-2l-1 4-6 9-7 11-7 15-4 15-3 24-1 15v22l1 7-1 10-1 33-1 14-1 28-1 43-1 35-3 28-2 4v-238l3-24 3-16 4-13 6-17 4-13 2-6 2-10 6-16 8-12 8-7 5-4z" fill="#969B5F"/>
<path transform="translate(254,667)" d="m0 0h7l10 3 9 2 16 2 3 2 7 2 5 3 14 4 17 4 10 3 26 3 22 2h14l28 2 24 1 35 2h20l47 1h83l15 6 9 8 6 8 7 14 4 16 1 8-1 9-2 10-2 12h-2l1 3-2 4-5-16-2-7-3-7-3-14-2-7-7-8-1-4-5-2-8-4-16-1-13 1-42-2-20-1-24-1h-45l-4-1-30-1-3-1h-19l-8 2-4-2h-9l-10 1-24 1-10 1-11-3-9-2v-2l-5-1-6-3-11-4-15-8-8-5-5-2-15-11-10-6-7-4v-2l-5-2-7-5z" fill="#B2B656"/>
<path transform="translate(590,1013)" d="m0 0h8l8 2 18 1v2h10l13 5 8 5 6 7 4 4 6 10 2 7 3 26v25l-3 8-3 4h-2l-2 5-9 4-6 2-11 1-15-2-22-2-14-3-5-2-12-9v-2l-3-1-2-4-4-16-3-15-2-9-2-2-1-10 2-6 1-10 1-5 3-5 3-1 5-6 7-4 7-3z" fill="#3C3B1F"/>
<path transform="translate(248,476)" d="m0 0 17 1 11 3 18 2 23 3 27 3h11l6 2 16 3 16 2 16 5 17 4 18 7 9 4 11 5 10 4 11 5 8 3 19 7 9 3 13 4 10 2 11 1 26 1 34 2 7 1 19 1 5 1 14 1 19 4 19 6 12 7 11 8 5 3 9 13 5 12 6 17 4 14 3 10 6 27 5 30 4 40 1 30v102l-2 2-2-15-1-18-2-18v-10l-2-25-1-33-4-38-4-24-10-38-4-13-2-8-8-24-8-14-11-11-11-7-16-7-18-5-21-3-10-1-31-1-17-1h-19l-25-3-15-3-17-6v-2l-9-3-19-8-4-3-11-4-10-3-3-3-14-6-9-4-18-6-6-3-22-5-25-3-14-3-27-3-7-2-2-2-16-2-13-4-10-2-9-4-7-1-5-2z" fill="#EFF0DA"/>
<path transform="translate(677,1011)" d="m0 0 4 2 3 3 5 17 2 9 4 24 1 16v18l-1 12-3 10-7 11-7 7-5 4h-2v2h-136l-4-3-13-2-14-1-28 1-21 2-15 3h-390l-5-5-5-4-2-4v-3h-2l-4-9-2-10 1-15 3-3 4-5 2-4v13l1 12 4 10 5 8 2 1v2h2v2l5 2 2 1 9 1h57l40 3h35l48-1 10-2 37-1 17-3 31-1h30l22 1 8-2 16-1 12-1 13-3h14l6-1h13l4-1h25l5 2 20 3 10 4h9l29 3 13 2 31 2 9 2h12l17-4 10-7 3-4h2l2-5 1-2h2l2-11v-30l-3-23-4-18-2-6-3-10-1-4 3-3z" fill="#5D6323"/>
<path transform="translate(288,1027)" d="m0 0h5l11 7 4 9 5 21 2 3 2 10 3 6-1 6h4l2 5h-2v3l2 1 2 12h-5v2l-8 1-12 5-7 2h-29l-6 2-11 1-4 2h-32l-13-2-6-3-5-5-1-5 4-6 8-8 6-3 2-3 5-1 2-4 8-11 3-5 2-3 2-7 9-12 8-7 14-11 4-1-1 3-3 1v4l11-6z" fill="#3D3C1F"/>
<path transform="translate(685,809)" d="m0 0h1l4 24 4 16 6 28 4 22 4 20 4 37 6 43 3 24 3 31 1 24v36l-3 18-5 14-8 1h-35v-1h23l1-4 6-12h2l1-7 2-11 1-27-1-24-2-24-2-17-4-16-2-16-15-59-5-12-3-9-4-9-4-8-4-7-4-4-1-2-9-4v-2h-2l-1 3-5-4h-7l-6-2 2-3-7-2v-3l-5-3 1-2-3-2v-2l-2-2v-2l-1-2 18-4 12-2 3-2 8-1v-2l6-1 3 3 4-2 2-4 4-3 8-17z" fill="#869452"/>
<path transform="translate(61,652)" d="m0 0h8l3 2 7 2 8 4v2l7 2v3h6l5 3 3 3 5 2h4v2l9 2 1 4 4 2v3h2v4l-4-1-1 2h-3l-4-1v4h-4v2l-4 1-1 2h-3l-2 5-2 3-5-1v6l-6 1-2 4-9 9-1 3h-2l-1 6-3-1 3-10 1-3h-2l1-7-3-1 2-6-4-2 2-7h-9l-5 2-5 8 4 4-1 6 1 4-2 18-4 11-1 9-2 3-2 16-3 8-1 15-2 16-4 37-1 9-3 19-2 19-3 5-6 9-2 6-4-1 3-22 3-19 3-52 3-59v-10l-3-3-2-7-1-2-2 2v-5h-1v-7l2 2 1-5 2 2 1-8 2-1 1-3h3v-10l3-27 1-10 4-9 9-13 5-3z" fill="#6E7033"/>
<path transform="translate(278,998)" d="m0 0 5 2 2 1h11l9 5 5 5 8 7v2l3-1 7 6 6 8 4 13-2 5 3 8 3 12 3 7 5 14 7 14v6l-13-2-3-1h-4l-7-3v3h-3l-3-9-1-6v-3-2h-4l-1-9-3-7-2-8-3-9-5-19-4-4-8-5-11 1-13 3-9 5v-5l4-3-7 4-11 9-8 7-8 11-2 8-3 3-5 9-7 9-5 1-2 4-8 5-7 7-2 5 2 5 4 4 8 3 10 1 1 2h-13l-16 1h-18l-9-5 1-3-1-5v-2l-1-2h5l2-4 6-7 6-3h2l2-4 7-5h2l2-4 16-16 6-11 4-7 2-6 9-17 9-11 9-7 12-6 11-2h6z" fill="#43441D"/>
<path transform="translate(290,899)" d="m0 0 13 1 10 2 11 5 18 8 11 2 7 2h34l13-2 1-2 20-1 2-1 9-1 12-4 12-2 5-2 21-3h17l29 3 18 4 20 6 5 1 10 3 11 2 13 2h18l13-2 7-3 4 1 8 5 3 5 4 4 4 6 6 11-1 3 2 1 3 11 5 17 6 26 1 7-1-2h-2l-1-2-3-1-2-4-4-4-7-25-4-9-9-14-6-5-4-3-20-2-13-1-14-4-13-2-10-4-13-5-22-8-17-4-9-1h-14l-13 3-10 4-11 6-9 3h-10l-13 2-8 1-25 1-3-1h-10l-3 1h-10l-18-2-10-1-9-2h-8l-12-5-5-4-9-4-6-5-11-4-17-3-2 1h-6l3-2 7-1 7-2z" fill="#707A32"/>
<path transform="translate(559,992)" d="m0 0h23l18 3 9 3 4 3 13 4 14 4 3 1v2l5 1 5 3 10 9-2-9-1-3 1-4h3l4 5 3 2v2h2l4 11 1 5 3 11 4 23 1 10v30l-1 7-2 4h-2l-2 5-1 2h-2l-2 4-5 4-6 4-17 4h-12l-12-2-38-3-6-1-15-2-16-8-2-5 5-1 15 3v-3l-4-1-9-11-3-18-5-16-2-9-3-5-1-4v-10l-2-2v-8l3-1-3-9 1-3-1-4-2-1 2-13 2-2 5-1 4-5zm31 21-8 2-9 4-8 7v2l-4 1-3 6v9l-2 9-1 2 1 9 3 4 3 19 3 12 2 7 3 5h2l1 3 8 6 8 4 14 3 22 2 15 2 11-1 12-4 5-5v-2l3-1 4-7 1-4v-25l-2-17-1-11-4-8-6-10-7-6-5-5-11-5-8-2h-8v-2l-18-1-8-2z" fill="#484425"/>
<path transform="translate(507,913)" d="m0 0h14l13 2 19 5 18 7 17 6 8 3 14 2 9 3 27 2 7 2 7 5v2l3 1 7 11 3 5 3 7 7 25 1 3 4 2v3l4 1v2h2l3 5 7 28 2 9 3 30v17l-2 20-5 12-5 9h-2l-1 4-20 1h-622v-1l388-1 15-3 21-2 28-1 23 2 5 1 3 3 136 1v-2l10-8 5-6 6-11 2-7 1-12v-18l-2-24-4-20-5-17-2-17-5-11-4-7-6-7v-3h-2l-5-5v-2l-6-2-4-3-16-4-16-3-6-3-12-3-10-2-15-4-7-3-19-5-4 1-11-1h-11l-1 1h-12l-10-3-7-2-9-1h-8l-9-2 2-2 11-6 10-5 6-2z" fill="#6E7034"/>
<path transform="translate(62,518)" d="m0 0 17 2 16 6 10 4 13 5 8 5 5 4 6 4 7 3-3 1 7 8 13 13 3 6 1 10 2 4 1 5 4 8 6 9 1 3 5 2 1 4h2l4 5 14 9 4 5 12 8v2l9 3 13 7-3 2-12-5-13-8-12-6-7-6-6-3v-2l-5-2v-2l-5-2-6-5-5-5-10-14-4-13-6-12-5-1-7-6-8-4-9-4v-2l-9-3-10-6v-2h-6v-2l-8-1-5-2-7-3-14-1-10 4-11 9-9 14-6 17-2 9-3 12-3 8-7 20-3 10-3 19-2 18-1 464h-1v-466l1-72 2-12 1-1 4-23 7-20 4-9 7-10 9-8 12-6 3-1z" fill="#A1A576"/>
<path transform="translate(584,970)" d="m0 0 9 1 9 2 5 1 9 2 10 4 15 3 12 5v2l3 1 4 4v2h2l3 5 2 5h2l3 7 1 3-2 1-7-7v-2h-3v6l3 8-1 3-12-11-8-3v-2l-9-2-15-4-7-2-4-4-20-4-9-1h-20l-12 5-4 5-6 2-3 13 3 1 1 6v4l1 6-2 1v8l2 2v10l3 8 1 1 2 9 6 21 2 13 9 11 3 1v3l-15-2-4-2-1-3-9-7-1-9-2-3-2-16-4-8-4-11-3-2-1-3-3-3-5-12v-6l2-4-2-1v-12h4l-1-7-1-1v-5l-4-2-4-3v-3h-2l2-4 4-4h2l2-4 6-5 15-2 2-1h19v-2l16-2 8 1v-3h5z" fill="#4D4D25"/>
<path transform="translate(71,907)" d="m0 0 7 1 9 3v2l4 1 5 3 4 9 2 12v3l-2 11-1 3h-3l-2 9-3 8-2 8-3 3-4 13-3 7-4 8-8 10h-3v5l-3 1-3 3h-2l-1 2-3-3-1-6-3 1-2-2-2 2-4-7-1-4-1-20-1-8v-17l3-27 5-10 6-8 3-1 6-8 7-6z" fill="#474B1C"/>
<path transform="translate(222,59)" d="m0 0h13l10 3 9 5 6 5 6 9 4 9 1 5v12l-3 11-1 3 2 4-12 6-15 4-6 1h-15l-15-3-12-4-7-4 3-3-3-10-1-5v-11l2-9 6-11 6-7 10-6 7-3z" fill="#67843F"/>
<path transform="translate(63,481)" d="m0 0 38 5 41 10 17 3 7 2 35 4 25 7 10 4 4 1 15 4 3 1v2l9 2 21 5 3 2-10-1-21-4-16-2-10-1h-28l-25-2-13-2-20-2-26-5-16-4-16-3-10-1-14-2-19 2-16 6-5 2v2l-7 5h-2l-2 4-7 10-6 12-1 134h-1v-145l1-29 5-5h2l2-4 14-8 14-5 7-2z" fill="#BDC5AC"/>
<path transform="translate(727,763)" d="m0 0 2 4 1 1 1 8 1 1v10l1 1 2 14 2 6 2 10 1 17v11l4 57v15l4 58 2 47 1 10 1 29v30l-1 29-2 16-2 9-3 1h-16l3-1 5-27 1-14v-35l-3-68-3-47-2-19v-11l-2-26-3-35v-58l1-10z" fill="#BDC5AC"/>
<path transform="translate(248,950)" d="m0 0h5l1 2-12 5-8 8-14 9-2 1v3h-2v2l-9 7-11 14-11 16-5 5-9 13h-2l-1 3-18 13-10 4-5 4-7 2h-18l-5-3v-2l-3-1v-2h-2l-2-4-2-10v-11l4-15h2l5-15 2-8 3-1 2-16 3-1 2-6h2v5h2l2 12v9l-2 3 4-1 2 10v21h10v-4l11-4 6-4h2v-6l2-2 1-6 5-5 10-7 9-6 7-5v2l5-2v-2l16-10 2-2h3l1-2 4-1 5-3 17-5z" fill="#515D15"/>
<path transform="translate(531,952)" d="m0 0 22 1 17 5 6 3v2l3 1 1 3 5 2-1 3h-5v3h-9l-8 1h-7v2l-2 1h-18l-1 1-13 2-4-3-5 2h-3l-2-1-1 3-4-1-5 5-4 1-3 1-1 2h-8l-4-2h-3l-6-1-6 1-12-3-17 1-20-2-18-1-3 2h-11l-13-5-9-4-7-3-2 1-2-1v-3h-6l-5-4 1-2 18-1v2l9-1 11 2 4 1 4-2 8-1h18l3-2h26l19-2 25-1 9 1 11-2 1-1h9l3-1v-2z" fill="#516025"/>
<path transform="translate(672,582)" d="m0 0 10 1 17 8 9 8 7 8 4 4 8 16 5 12 2 7h2v7l5 18 2 1 5 19 4 16 2 6 3 20 3 29 1 35 2 24v9l2 18 2 29 1 19 2 77 2 69 1 57-2 31-2 8-2 9h-11l3-12 1-12v-98l-1-9v-44l-1-36-2-23v-13l-1-27-1-6-1-30-1-9-1-28-1-11v-28l-1-23-3-24-6-30-7-24-6-22-7-18-8-11-9-10-10-7-10-5-11-4z" fill="#E4E8D4"/>
<path transform="translate(1189,69)" d="m0 0h21l19 6 3 3 8 4 14 14 7 11 6 15 2 11v16l-3 15-3 8-1 4 5 2 1 3-17 9-16 6-24 4h-29l-26-4-24-9-8-4 1-3 5-3-1-6-5-17-1-6v-16l3-14 4-9 6-10 9-10 9-8 8-5h4v-2l15-4zm-2 2-16 4-14 7-8 6-7 8-7 9-4 8-5 16v23l3 13 3 7h2v2l6-1v-2l7-2 9-4 11-3 3-2 13-2h26l14 2 24 8 10 5h2v-3h2l5-14v-26l-4-15-5-10-7-10-7-7-10-7-8-4-15-5-4-1z" fill="#628037"/>
<path transform="translate(330,1106)" d="m0 0 5 1 5 2 2-1 16 4 4 3 6 1 13 5-3 6-3 4-13 1h-27l-21 1-17 3h-12l-26 1-9 2-48 1h-36l-39-3h-57l-9-1-7-4v-2h-2v-2l-4-2-3-6 1-7h2l1-4h2l1-2 3 7 8 7 9 3 22 1h41l5 1 24 1 29-1 8-1h13l10-1h21l4-2 11-1 6-2h29l15-5 5-2 4-1 3 1v-2l8-1z" fill="#494525"/>
<path transform="translate(625,1044)" d="m0 0 15 1 10 3 8 7 4 7 4 14 3 13 1 5v15l-2 1-3 6-5 5-9 3-13-1-20-5-16-8-3-3-4-8 1-14-1-9 1-2 2-13 3-7 6-6z" fill="#353020"/>
<path transform="translate(148,519)" d="m0 0 20 1 22 3 16 1h17l7 3 9 2 18 5 17 5 26 8 16 4 8 1 1 1 8 1 4 2 9 2 12 4 10 5 5 3 3 11 1 1v6l-5 2-4 4h-2l-2 7-5 3h-3l-1 3-6 4-3-1 1-3-4 2-1-5-2 1-1-6-2 2v-9l-1-4-5-1-7-5-1 2-5-4-1 3-11-9-9-3-6-4-18-6-17-7-9-2-30-12-28-9-9-2-25-7-7-2z" fill="#C2C889"/>
<path transform="translate(632,17)" d="m0 0h19l17 9 6 8 2 4 1 15-4 11-4 14-7 12h-2l-2 4-4 5-4-2-2-4v-3l-6 2h-4l-3-8-1-4-9 1-6-2-4 3v-3l-5-2-5-3-5-5-7-8-4-2 2-7 4-2-1-3 3-1v-7l8-3 4-2v-6l2-2 13-2 6-1v-5z" fill="#9DCED3"/>
<path transform="translate(693,761)" d="m0 0 2 2 6 27 4 10 3 32 2 10 2 18 2 10 2 14 4 30 2 28 1 6 1 16 1 8 1 15 2 18 3 30 2 21 1 27v29l-2 15-2 12-3 7-4 1h-14v-1h8l3-11 3-14 1-7v-43l-2-29-3-30-2-13-8-59-1-14-4-24-4-18-6-32-4-14-3-15-2-22 1-7h2l1-12 3-19z" fill="#A0A475"/>
<path transform="translate(66,503)" d="m0 0 17 2 12 2 25 5 11 3 17 3v2l7 1 25 7 15 4 31 10 12 5 9 4-1 2h-10l-9 1-1 2-10 1h-3v-2h-7l-9-3-7-1-8-3-16-4-16-5-17-4-8-3-18-4-16-5-26-4-15 1-10 4-10 7-6 7-6 9-6 18-3 8-4 23-1 1-2 12h-1v-62l9-17 7-9 7-5h2v-2l12-6 9-3z" fill="#B3B985"/>
<path transform="translate(53,557)" d="m0 0 10 5 7 6v2h-2l3 3 5 4 2 4-2 1 8 10 7 8 11 9 5 6 5 2v2l4 2 13 6 3 3 10 6 6 3 1 2-5-2-13-6-10-5-11-6-9-6-22-16-7-8-6-6-9 2-5 2-2 4h-2l-1 5h-2v2l-3 3h-2l-1 4-6 9-7 11-7 15-4 15-3 24-1 15v22l1 7-1 10-1 33-1 14-1 28-1 43-1 35-3 28-2 4v-238l3-24 3-16 4-13 6-17 4-10 9-17 3-3 7-16 3-4h2v-2z" fill="#919463"/>
<path transform="translate(216,508)" d="m0 0h17l6 1 19 3 31 5 17 3 16 3 9 1 21 2 12 2 11 1 27 6 14 7 17 10v2l13 10 14 12 2 1 5 10 1 3h2v2h2l2 5-3 3 2 4 5 4v2l4 2 8 7 1 3 2 2h-4l-7-4-5-5-7-6-8-6-7-11-11-10-18-12v-2l-6-2-14-8-21-7-30-6-9-2-13-2-38-6-11-4-21-5-5-2v-2l-5 1-2-2-13-3-4-2-18-6z" fill="#D8D9AA"/>
<path transform="translate(427,1046)" d="m0 0h6l5 3 1 11 4 1 2 7 1-1h11l6 2-1 5h15l-1 3 7 1 15 6 7 20 4 6 7 2v2l4 2h-10l-5-1h-8l-4 2-21 3-1 1-27 1v-1l-8 1-7 1v-2l-4-1 10-5 2-2v-3l2-1-7-5 1-8-3 7-4-1-3-5-8-5-1-3-5-2-1-3h-5l-1-7h2l-5-6 1-3 10 10 9 2 3-1-2-4-2-3v-5l5-2v-11l2-3-2-1z" fill="#505D15"/>
<path transform="translate(630,617)" d="m0 0h24l9 1 10 4 1 3 11 3 7 8 5 4 5 9 5 6 8 16 7 13v2l3 1 6 18 4 20 2 4 2 17 1 47v18l-1 7h-1l-3-15-2-5-1-10-1-3v-8l-1-1-1-8-2-5-2-20-3-21-6-20-8-16-7-11-9-13-8-8-6-3-5-6-17-6-8-2-24-1-12 2h-24l-9 1h-10l-13 1-2-2 5-2h-15l-5-1v-1l31-1 8-1 9-2 8-2-3-2 20-4h15l5-1-5-1z" fill="#D9DAA9"/>
<path transform="translate(39,1084)" d="m0 0h1v13l1 12 4 10 5 8 2 1v2h2v2l5 2 2 1 9 1h57l40 3h35l48-1 10-2 37-1 17-3 31-1h30l13 1 10 2 2 2 7 1 2 3-14 3h-8l-13 2h-10l-6 1h-308l-5-5-5-4-2-4v-3h-2l-4-9-2-10 1-15 3-3 4-5z" fill="#555633"/>
<path transform="translate(58,627)" d="m0 0h11l20 8 16 8 10 4 26 13 1 5h-2v3l-4 2 1 4-3 3h-3v2l-5 1-10-4-6-1-5-3v-2l-5-2-6-1v-3l-5-1-2-1v-2l-5-1-5-3-6-2-6-1-6 1-7 3-9 13-4 9-4 38-1 9h-3l-1 4h-2l1 5-2 7-3 2-2-5-1-13 1-37 2-17 7-21 5-8h2l1-4 7-6 6-4z" fill="#797B48"/>
<path transform="translate(515,978)" d="m0 0 4 2-1 3-6 5-5 5-4 5h2v3l4 2 4 3 2 6v7h-4v12l3 1-2 4 1 9 4 9v2l3 1v3l4 2 6 16 3 7 1 12 2 3 1 9 9 7v3l3 1-2 2-2-1 2 5 5 1 9 5v1h-18l-10-4-20-3-5-2h-25l-4 1h-17l-6 1h-10l-13 3-15 1-13 1-8 2-22-1-1-3 3-3 5-6 8-1 7 1 32 1 1 1 9-2h7v1l25-1 1-1 21-3 4-2h8l11 1h2l-2-2 5-2-4-1-5-1v-2h-3l1-3 1 1 2-5 3 3 1 2 1-2 1-15-4-8-3-4-3-8-2-9-6-8-1-7-3-14-4-2 2-10 1-8-3-4 2-4 4-6v-2l-6 1-5-3 3-5h5l4-5 3-1 3 1 1-2 4 1z" fill="#4A511A"/>
<path transform="translate(31,908)" d="m0 0 1 4v17l-3 16-2 19-1 13 1 30 2 20 2 14 1 9 2 1v2l2 1 2-2 1 2 2-2v29l-4 11-4 4h-2v18l4 13 1 3h2l4 8 8 6v2h-23l-5-7-4-11-1-12v-54l-3-29-1-6-1-18v-38l3-26 2-10 2-11h4l1-6 6-9z" fill="#62633F"/>
<path transform="translate(61,542)" d="m0 0 14 1 7 3 9 3 4 1v2h6v2l6 2 4 3 7 3 2 1v2l9 3 11 6 2 4 7 2 6 9 6 18 8 11 5 4v2l4 2 7 5v2l5 2 1 2 8 4 7 6 14 7 10 6 6 2-3 1-8-3-6-2-8-4-11-6-8-6-6-2-7-5-11-6-4-3-5-1-12-9-6-5-2-2v-2l-5-1-5-3-2-4-8-7-4-5-4-6-10-2-5-6-3-1-5-5-6-3-7-4-1-2-6 1h-3l-7 2-5-3-6 3h-2v2h-2l-2 4-7 16-5 6-7 14-1-3 2-6 2-10 6-16 8-12 8-7 5-4z" fill="#93A063"/>
<path transform="translate(23,745)" d="m0 0 2 3 3 4 2 8 2-1v12l-5 97-1 16-6 37-3 22-2 10-2 18v38l1 18 3 23 1 12v54l2 16 6 12 1 1 25 1v1h-33l-6-15-4-17v-57l-3-58v-19l2-35 2-25 3-24 2-20 1-19 2-71 3-41z" fill="#797B49"/>
<path transform="translate(63,585)" d="m0 0 4 1 17 17 11 8 10 7 13 8 12 5 5 3 20 10v2l5 2 15 9 7 3 9 6 12 7 5 2 3 3v3l-4 2h-9l-11-2-2 1-7-2-8-4-4-3-7-3-2-2-7-3-4-3v-2h-3v-2l-5-2-4-2-4-4-8-5-7-3-12-6-10-6-12-7-8-5-12-4-10-1-16 8-5 4h-2l2-5 7-10 3-6h2l1-3h2v-2l2-1 1-4 6-5 5-3z" fill="#878C57"/>
<path transform="translate(46,446)" d="m0 0h20l9 2 29 6 16 5 16 6 21 6 15 4 9 3 8 2 4 2 26 4 11 4 18 3 10 3 7 1-2 2-13-2-34-4-11-2-12-1-11-2h-8l-5-1-13-3-11-2-10-1-13-4-5-2-38-8-1-1-22-3-13 1-17 6-7 5h-2l-1 3-8 4-6 5-1 11h-1v-28l1-7h3l10-6 2 2 9-5 10-5z" fill="#D6E8CD"/>
<path transform="translate(56,462)" d="m0 0 22 3 7 2 36 8 8 3 13 5 21 6 26 8 22 5 16 5 4 2h-18l-12-3-35-4-11-3-22-4-32-8-21-3-17-2-18 2-16 5-16 8-5 5h-2l-1 3-3 2-1 29h-1v-38l1-11 8-7 7-3 5-5 10-5 12-4z" fill="#CAD7C2"/>
<path transform="translate(138,481)" d="m0 0h9l22 5 10 1 11 1 3 1 18 2 29 4 16 2 14 2 19 3 13 3 17 3 24 3 20 2v2l10 1 22 5 5 2 1 3 6 2-2 2h-1l6 2 1 4 7 2v3l-12-4-22-5-9-2-18-2-16-2-15-2-9-1-25-4-17-3-27-5-13-1-16-4-16-5-17-4-39-12-9-3z" fill="#DDE1C3"/>
<path transform="translate(685,809)" d="m0 0h1l4 24 4 16 6 28 4 22 4 20 4 37 6 43 3 24 3 31 1 24v36l-3 18-5 14h-7l3-7 4-11 2-9 1-10v-25l-3-38-6-36-3-23-1-7-5-26-5-30-8-31-5-15-2-7-7-15-3-7v-3l-5-2-2-5 1-4h2l2-4 4-3 8-17z" fill="#919463"/>
<path transform="translate(681 1e3)" d="m0 0 3 1v2l4 2v3l4 1v2h2l3 5 7 28 2 9 3 30v17l-2 20-5 12-5 9h-2l-1 4-20 1h-622v-1l388-1 15-3 21-2 28-1 23 2 5 1 3 3 136 1v-2l10-8 5-6 6-11 2-7 1-12v-18l-2-24-4-20-5-17-2-17z" fill="#626340"/>
<path transform="translate(20,731)" d="m0 0h2v15l-3 41-2 71-1 21-4 37-2 15-3 54v16l2 36 1 22v57l4 16 5 12v3h-18v-221l3-11 3-17 2-24 1-55 2-23 5-30 2-19z" fill="#818559"/>
<path transform="translate(709,780)" d="m0 0h1l5 30 2 6 4 24 3 15 4 44 2 31 1 17 2 24 3 51 2 49v36l-2 16-3 19-2 4-8 1 4-2 3-10 2-12 1-11v-33l-1-23-2-24-5-45-1-18-1-9-1-16-1-2-2-28-4-30-4-24-3-26-1-2-3-32v-7l3-8z" fill="#B3B985"/>
<path transform="translate(739,811)" d="m0 0h2l1 12 3 25 2 9 4 34 2 24 2 59 1 10 5 74v65l-2 18-3 6h-12l3-1 1-9 2-16 1-39v-21l-1-28-1-10-2-47-4-58v-18l-4-57z" fill="#CAD7C2"/>
<path transform="translate(102,453)" d="m0 0 14 1 7-1h8l11 3h10l19 5 9 6 18 4 18 6v2l24 6 2 1 13 2 5 2 14 2 12 2 9 3h9l15 3 30 4 32 4 7 2 16 3 11 4 2 2 3 2 15 7 8 4-2 1-14-5-8-3-19-5-26-5-41-4-26-4-16-3-2-1-19-3-5-2-14-3-13-3-12-2-7-3-26-4-6-3-13-3-4-2-21-5-16-5-13-5-16-5z" fill="#E4E8D5"/>
<path transform="translate(661,1009)" d="m0 0h3l4 5 3 2v2h2l4 11 1 5 3 11 4 23 1 10v30l-1 7-2 4h-2l-2 5-1 2h-2l-2 4-5 4-6 4-17 4h-12l-12-2-38-3-6-1-15-2-16-8-2-5 5-1 15 3v-2l11 1 24 3 3 1 22 2 15 2 11-1 12-4 4-4 6-8 2-6v-25l-2-17-1-11-5-12-2-10-2-6-2-10-1-3z" fill="#494525"/>
<path transform="translate(224,63)" d="m0 0h9l12 3 11 8 2 2-1-3h2l7 11 3 9v17l-4 10-5-2-9-4v-1l8 1 2-6 1-10-17 1-8 3-4 4-1 4h-6l-2-5-8-5-6-1h-14v7l2 6v3l10-3 1-2-1-4 7 3 6 1v1l-7 2-11 3-11 5-4-12v-15l4-12 4-4-5 15v15l2 5-2-8v-9l3-11 6-9 9-8 10-4z" fill="#A0D5E0"/>
<path transform="translate(271,948)" d="m0 0h15l15 5 11 6 7 2 12 2 9 3v3l6 1 3 1-1 3 5-1 10 5 14 6-1 2-6 3-5 1 2 2-8 1h-3l-11 1-18-3-7-4-7-2-11-5-6-4v-2l-4-1-4-2h-6-3v1h-12l-10 2-3 1-4-2h-7l1-4h7l4-3 3-1h7v-2l3-1-4-5v-3l-4-1v-1l6-2z" fill="#50541D"/>
<path transform="translate(677,1011)" d="m0 0 4 2 3 3 5 17 2 9 4 24 1 16v18l-1 12-3 10-7 11-7 7-5 4h-2v2h-103l-18-5-9-6 11-3 29 3 13 2 31 2 9 2h12l17-4 10-7 3-4h2l2-5 1-2h2l2-11v-30l-3-23-4-18-2-6-3-10-1-4 3-3z" fill="#545632"/>
<path transform="translate(735,719)" d="m0 0 2 1v6h2l2 2 2 10 1 1 1 10 1 3h2v6l3 3v28l2 29v16l1 5 1 28 1 6 1 27v15l2 21 1 50v32l1 13v16h-1l-2-22-3-41-1-10-2-59-3-34-3-24-3-17-2-20-1-9-1-8v-22l-1-35-2-17-1-3z" fill="#DDE1C3"/>
<path transform="translate(516,1011)" d="m0 0 5 3 4 4v-2l9 1 3 2 1 6v4l1 6-2 1v8l2 2v10l3 8 1 1 2 9 6 21 2 13 9 11 3 1v3l-15-2-4-2-1-3-9-7-1-9-2-3-2-16-4-8-4-11-3-2-1-3-3-3-5-12v-6l2-4-2-1v-12h4l-1-3z" fill="#474C1C"/>
<path transform="translate(477,1077)" d="m0 0 10 2 5 3 6 2 7 20 4 6 7 2v2l4 2h-10l-5-1h-8l-4 2-21 3-1 1-27 1v-1l-8 1-7 1v-2l-4-1 10-5 2-2v-3l2-1-7-5 2-7 6 3 5 1v-2l2-2 15-2 7-4 5-4v-5h5z" fill="#515817"/>
<path transform="translate(671,894)" d="m0 0 7 6 4 8 3 4 4 16 5 15 3 11 5 23 3 9 2 7v6l2 1 2 9 2 5 5 32 3 39v24l-2 14-4 14-5 9-1 1h-35v-1h23l1-4 6-12h2l1-7 2-11 1-27-1-24-2-24-2-17-4-16-2-16-15-59-5-12-3-9-4-9z" fill="#818558"/>
<path transform="translate(63,481)" d="m0 0 38 5 41 10 17 3 7 2 35 4 25 7 10 4 4 1 15 4 3 1v2l9 2 21 5 3 2-10-1-21-4-16-2-10-1h-11l-9-3-20-4-7-2-30-7-18-6-28-6-13-4-16-4-16-2h-15l-12 3-10 3-14 7-5 5-5 4-4 4v-6l5-5h2l2-4 14-8 14-5 7-2z" fill="#CACDAF"/>
<path transform="translate(71,907)" d="m0 0 7 1 9 3v2l4 1 5 3 4 9 2 12v3l-2 11-1 3h-3l-2 9-3 8-2 8-3 3-4 13-3 7-4 8-8 10h-3v5l-3 1-3 3h-2l-1 2-3-3-1-7 1-10 3-3 6-1 1-3 5-5 5-8 3-7 6-19 4-13v-21l-2-4-3-1-2-3-10-1-8 5-3 2-1-7-1-3 6-7 6-5z" fill="#4A511B"/>
<path transform="translate(563,1020)" d="m0 0 4 2 2 2-3 3-1 2h-3l-3 6v9l-2 9-1 2 1 9 3 4 3 19 3 12 2 7 2 4 11 9 4 2 4 3-19-2-9-3-9-11-3-18-5-16-2-9-3-5-1-4v-10l-2-2v-8l3-1-3-9 3-3 4 1v2h5l3-2 7-1z" fill="#42431E"/>
<path transform="translate(571,934)" d="m0 0 17 2h11l14 3 6 2 27 2 7 2 7 5v2l3 1 7 11 3 5 3 7 6 22-1 3-4-8-4-7-6-7v-3h-2l-5-5v-2l-6-2-4-3-16-4-16-3-6-3-12-3-10-2-15-4-7-3-14-4-2-2 4-1h10l5 1z" fill="#66702C"/>
<path transform="translate(727,763)" d="m0 0 2 4 1 1 1 8 1 1v10l1 1 2 14 2 6 2 10 1 17v11l4 57v15l4 58 2 47 1 10 1 29v30l-2-1-1-30-1-16-1-3-2-29-2-18-2-44v-12l-3-38-2-15-1-6-2-13-3-26-5-41z" fill="#CACDB0"/>
<path transform="translate(51,1107)" d="m0 0 2 4 7 8 5 3 7 2 22 1h41l5 1 19 1 12 4 4 2 12 2h8l3 1v2l5-1 5 1v1l-6 1h-36l-39-3h-57l-9-1-7-4v-2h-2v-2l-4-2-3-6 1-7h2l1-4h2z" fill="#4D4D24"/>
<path transform="translate(38,918)" d="m0 0h3l1 12-2 23-2 16v18l1 6 1 20 1 9 1 17-2 15-2 3-1-2-2 2-1-4-2 3-2-17-2-12-2-20-1-31 2-25 3-17 3-10 1-2h2z" fill="#555633"/>
<path transform="translate(531,952)" d="m0 0 22 1 17 5 6 3v2l3 1 1 3 5 2-1 3h-5v3h-9l-8 1h-7v2l-2 1h-18l-1 1-13 2-6-5-1-5v-3l1-2-4-2v-2l1-4 4-2v-2z" fill="#555633"/>
<path transform="translate(1187,71)" d="m0 0h19l16 5 9 4 9 6 10 9 7 10 5 10 4 15v26l-5 14h-2v3l-9-3 2-4h2l2-6 3-6 1-7v-15l-1-7-6-14-5-9-9-10-10-7-8-4-6-2-9-2h-21l-17 5-5 3h-2v2l-6 3-7 8-8 10-1 4h-2l-1 7-3 8v25l4 12 1 4h2v2l2 1h-2v2l-6 1v-2h-2l-5-14-1-6v-23l6-18 7-12 14-14 13-8 11-4z" fill="#E3E9D6"/>
<path transform="translate(672,903)" d="m0 0h2l5 9 8 24 13 52 2 16 4 17 3 26 2 38-1 27-2 11-2 7h-2l-1 5-6 11-3-1 1-3h2l2-5 5-11 2-5 2-20v-17l-3-30-4-16-5-21-4-15-6-26-7-21-2-9-1-4-1-8-2-10 1-4-2-7 1-3z" fill="#797B48"/>
<path transform="translate(519,1112)" d="m0 0 5 1v2l9 3 1 1 9 2 4 3v2l5 1 9 5v1h-18l-10-4-20-3-5-2h-25l-4 1h-17l-6 1h-10l-13 3-15 1-13 1-8 2-22-1-1-3 3-3 5-6 8-1 7 1 32 1 1 1 9-2h7v1l25-1 1-1 21-3 4-2h8l11 1h2l-2-2z" fill="#50541D"/>
<path transform="translate(1379,265)" d="m0 0h17l5 5 4 5 2 5v10l-3 7-5 6-7 3h-10l-7-2-6-7-3-6v-13l4-6 6-6z" fill="#2F470C"/>
<path transform="translate(1193,99)" d="m0 0 5 1 12 11 3 2 5 9 3 6v4l-10 5-5 5-4 3-4-2-2-10-2 13-4-2-5-5-12-6-1-5 3-9 4-6h2l1-4 9-9z" fill="#8B933D"/>
<path transform="translate(887,251)" d="m0 0h17l9 5 5 5 3 5v5h-11l-6-7-3-1h-12l-6 5-2 6v8l2 6 5 6 3 1h10l5-2 3-8h13l-3 9-8 9-10 3h-8l-9-2-6-3-6-8-3-6v-16l4-9 4-5 7-5z" fill="#2C460A"/>
<path transform="translate(676,859)" d="m0 0 3 3 4 9 8 25 8 32 4 26 5 26 1 7 2 17v5l-2-3-4-16-3-11-3-10-5-24-3-6-2-10-2-7-4-12-5-7-3-5-6-5-1-6 2-4-2-3v-11l2 1z" fill="#878C57"/>
<path transform="translate(54,922)" d="m0 0h3l1 5-4 12-2 9v31h-1v11l2 16-1 16-4 2-2-2-2 2-4-7-1-4-1-20-1-8v-17l3-27 5-10 6-8z" fill="#4C4C24"/>
<path transform="translate(0)" d="m0 0h143v1l-87 1-13 5-1 2-4-1-1 4-8 4-5 4-8 6-5 5-4 7-3 7-2 2-1 63h-1z" fill="#D7EBEA"/>
<path transform="translate(127,818)" d="m0 0 6 2 1-2 4 1 15 7 9 2h2l7 15 3 13h-2l1 6v23l-1 7h-3v-4h-2l-2-4-2-14-3-3-4-12-4-6 1-4-4-2-11-9-7-3v-4l-4-1-5-5v-2z" fill="#6E7034"/>
<path transform="translate(12,675)" d="m0 0h1l2 24 3 14 2 17v17l-3 26-4 23-2 23-1 55-2 24-5 26-2 2 1-9 3-28 2-68v-13l1-32 1-10 1-31 1-11-1-7v-25l1-13z" fill="#888C58"/>
<path transform="translate(966,265)" d="m0 0h13l3 1v2l4 1 5 6 2 6v8h-28l2 5 3 2h7l4-3h10l-1 4-6 7-6 2h-9l-8-3-4-5-2-1-2-6v-11l4-8 7-6z" fill="#2F480C"/>
<path transform="translate(1141,265)" d="m0 0h14l5 2 4 5 1 5v28h-9v-3l-5 3-5 1h-9l-6-4-2-4v-8l5-6 9-3 12-1-2-5h-8l-5 3h-9l1-7 5-5z" fill="#2F470D"/>
<path transform="translate(1079,265)" d="m0 0h13v2l5 2 5 5 2 5v10h-28l3 6 3 1h7l3-1v-2h11l-1 4-5 6-8 3h-11l-7-4-5-7-1-4v-11l3-7 8-7z" fill="#31490E"/>
<path transform="translate(1249,265)" d="m0 0h15l8 5 2 3 1 32h-10v-3l-9 4h-11l-5-4-1-3v-11l6-5 14-3h5l-2-4-2-1h-7l-3 3h-10l1-7 6-5z" fill="#2F470C"/>
<path transform="translate(1010,265)" d="m0 0h15l8 7 1 5v28h-9v-3l-5 3-4 1h-10l-6-4-2-5 1-9 6-5 13-2h6l-2-5-2-1h-8l-2 3h-11l1-5 5-6z" fill="#2E460B"/>
<path transform="translate(693,761)" d="m0 0 2 2 6 27 4 10 3 32 2 10 2 18 2 10v7l-2-3-5-16-4-12-3-5-5-14-7-13-3-9 1-11h2l1-12 3-19z" fill="#ACB075"/>
<path transform="translate(1146,135)" d="m0 0h14l14 3 10 5 6 5 2 7h-21l-10-5-1 1 6 5v3l-11 3-7 3-5-1-4-13v-15z" fill="#607F35"/>
<path transform="translate(708,728)" d="m0 0h2l4 8 5 21 2 4 4 38 1 2-1 5-1 49-2-4-2-11-5-29-1-1-2-12-2-11-1-19v-32z" fill="#C2C889"/>
<path transform="translate(1190,265)" d="m0 0h12v2l5 1 4 7v31h-11l-1-29-1-1h-9l-2 5-1 25h-11v-40h10v3z" fill="#334B10"/>
<path transform="translate(494,1139)" d="m0 0h10l23 2 5 1 3 3 45 1v1h-528v-1l388-1 15-3 21-2z" fill="#6D6F3C"/>
<path transform="translate(1226,135)" d="m0 0h26l2 1v20l-1 4h-2l-1 5h-4v-2l-10-2-7-3 3-5 3-4-11 4-3 2-19-1 2-5 3-5 2-2h4v-2z" fill="#A6AC4F"/>
<path transform="translate(1439,265)" d="m0 0h11v41h-10l-1-3-4 3h-13l-5-5-3-5v-30h11l1 27 2 3h8l2-2z" fill="#334B10"/>
<path transform="translate(1475,265)" d="m0 0h12l8 6 1 2v33h-11l-1-29-1-3-8 1-3 1-1 29h-11v-39h10l1 2z" fill="#334A10"/>
<path transform="translate(685,809)" d="m0 0h1l4 24 4 16 6 28v7l-2-4-2-5-2-4-8-6-2-4-4-2-6-5-2-5v-3l-5-2-2-5 1-4h2l2-4 4-3 8-17z" fill="#969B5F"/>
<path transform="translate(119,627)" d="m0 0 9 3 7 4 20 10v2l5 2 15 9 7 3 9 6 12 7 5 2 3 3v3l-4 2h-9l-11-2-2 1-7-2-8-4-6-4 4-4-6-2 1-6-2-1-1 2-1-7-2-4-9-4-4-5h-3l-7-4-5-1-9-6z" fill="#869353"/>
<path transform="translate(1294,265)" d="m0 0h14l8 6 4 5v5h-10l-5-5h-8l-3 3-1 2v10l3 4 7 1 4-2 2-3h11l-1 6h-2l-2 4-5 5-4 1h-10l-7-4-6-7-2-5v-9l2-7 7-8z" fill="#364C12"/>
<path transform="translate(1338,265)" d="m0 0h11l10 6 3 6v3h-11l-4-4h-8l-3 1-1 4v8l3 5 3 2 7-1 2-4h12l-1 5-7 8-5 2h-12l-8-5-3-4-2-4v-13l4-9 6-5z" fill="#2F470C"/>
<path transform="translate(36,704)" d="m0 0 2 4 4 18 2 3v21l-3 15-5 13-4 15-1 7h-1v-13l1-26-3-3-2-7-1-2-2 2v-5h-1v-7l2 2 1-5 2 2 1-8 2-1 1-3h3v-10l1-11z" fill="#707A33"/>
<path transform="translate(573,960)" d="m0 0 8 1 6 2h9l6 2 7 1 9 3v2l7 1 22 6 8 4 5 3 5 5 2 5h2l5 7 3 6-1 7-4 1-3-5v-4h-2l-4-6-1-4h-2v-2l-4-2-3-3v-2l-20-6-9-2-11-3-7-2-10-2-17-5 1-3-4-2v-2z" fill="#516026"/>
<path transform="translate(584,970)" d="m0 0 9 1 9 2 5 1 9 2 10 4 15 3 12 5v2l3 1 4 4v2h2l3 5 2 5h2l3 7 1 3-2 1-7-7v-2l-4-1-7-8-8-5-14-3-12-3-19-7-21-6v-4h5z" fill="#51541D"/>
<path transform="translate(290,899)" d="m0 0 13 1 10 2 11 5 8 4v2l6 2 11 8 8 4 6 4v1l-9-1-9-2h-8l-12-5-5-4-9-4-6-5-11-4-17-3-2 1h-6l3-2 7-1 7-2z" fill="#6E7033"/>
<path transform="translate(611 1e3)" d="m0 0h6l9 3 14 4 3 1v2l5 1 5 3 10 9 4 11 2 10-3-3-3-6-8-7-4-4-11-5-8-2-8-1v-2h-18l-15-3v-3l8-2 1-1 7 1v-3h4z" fill="#43441E"/>
<path transform="translate(1189,69)" d="m0 0h21l19 6 3 3 8 4 14 14 7 11 6 15 2 11v16l-3 15-3 8-2 4-5-2-1-2 4 1v-3h2l1-6 3-8v-26l-4-15-5-10-7-10-10-9-11-7-18-6-4-1h-19l-16 4-14 7-6 5h-2l-2 4-7 7-8 14-5 16v23l3 13 2 3v4h2v2l2 1-5 2-6-18-2-11v-16l3-14 4-9 6-10 9-10 9-8 8-5h4v-2l15-4z" fill="#83904D"/>
<path transform="translate(196,98)" d="m0 0h14l8 2 8 6v4h6l1-5 6-5 6-2h17v10l-2 7-17-3-22-1-12-3 1 3-2 2-10 2-3-9v-7z" fill="#A4AA4E"/>
<path transform="translate(483,1123)" d="m0 0h25l5 2 20 3 10 4 5 1-4 2-7-1-27-6-8-2h-22l-5 2h-5l-5 2-9 1-5 2-23 3-13 2h-8l-7-1-2-2-7-1 3-2 7-1 4-1 16-1 12-1 13-3h14l6-1h13z" fill="#516025"/>
<path transform="translate(1044,256)" d="m0 0h11v10h6v8h-6l1 21 6 1v9l-1 1h-10l-5-4-2-5v-23h-5v-8h5z" fill="#32490F"/>
<path transform="translate(1161,910)" d="m0 0h9l2 1v2h2v-2h5v28l-5 5-3 2h-8l-5-4-1-5h6l2 2h5l2-2 1-5-3 2h-10l-4-4-1-2v-12l4-5z" fill="#EEF1EA"/>
<path transform="translate(621,990)" d="m0 0 17 2 11 4 11 10 1 7 3 10-1 3-12-11-8-3v-2l-9-2-15-4-7-2-1-3 4-2 6 1 2 1 1-2h2l-1-3-5-2z" fill="#474C1C"/>
<path transform="translate(1507,256)" d="m0 0h11v10h6v8h-6l1 21 5 1v9h-10l-5-3-2-3v-25h-5v-8h5z" fill="#2F460C"/>
<path transform="translate(1190,73)" d="m0 0h14l11 2 12 5 4 2v2l6 2 1 3 4 2 9 9 9 17 3 13v19l-4 16h-2l-1 5h-2l1-4 3-11 1-1 1-7v-15l-1-7-6-14-5-9-9-10-10-7-8-4-6-2-9-2h-21l-17 5-5 3h-2v2l-6 3-7 8-8 10-1 4h-2l-1 7-3 8v25l4 12 1 6h-2l-4-9-2-7v-27l3-11 8-15 9-10 7-6 12-7 14-4z" fill="#A5AA5B"/>
<path transform="translate(1263,910)" d="m0 0h11v2l4 2 2 3v11l-6 7h-10l-3-2v11h-6v-33h5v2z" fill="#F0F2ED"/>
<path transform="translate(313,86)" d="m0 0h8 3 6v24l-3 5-4 3h-8l-5-3-1-5h6l1 1h6l1-4-2 1h-8l-5-4-1-2v-10l4-5z" fill="#3A4E16"/>
<path transform="translate(929,265)" d="m0 0h10v5l6-5h7v11l-10 2-1 4-1 23h-11z" fill="#354D12"/>
<path transform="translate(1120,901)" d="m0 0h10l7 6v5h-6l-3-4h-8l1 5 12 3 4 4v10l-5 5-3 1h-9l-6-4-3-5v-3h7l3 4h8l-1-5-11-3-3-1-1-2v-11l5-4z" fill="#E7EAE0"/>
<path transform="translate(222,59)" d="m0 0h13l10 3 9 5 6 5 6 9 4 9 1 5v12l-3 11-1 4-3-1 4-11v-17l-4-11-5-7 1 4-7-6-5-4-6-3-9-2h-9l-11 3-9 6-7 8-4 10-1 5v9l3 13-3-3-2-7v-15l4-11v-1l-4 9-1 4v15l4 13h-2l-4-10-1-5v-11l2-9 6-11 6-7 10-6 7-3z" fill="#94A167"/>
<path transform="translate(759,987)" d="m0 0h2l2 38 1 10 1 23 1 51-1 14-4 23-5 1 3-12 1-12v-98l-1-9z" fill="#D6E8CD"/>
<path transform="translate(1281,1010)" d="m0 0 5 1v12h6l1-6 4-3 7 1 3 3 3-4h10l1 1v12l-3 5-6 1-4-3 1-4-2-3-5 5-7-1h-2l-1 1h-10l-1-1z" fill="#A5D7E3"/>
<path transform="translate(376,86)" d="m0 0h16l3 1 2-1h9l4 5v17l-1 1h-5l-1-1-1-16-5 1-1 15-1 1h-5l-1-15-1-2-5 1-1 16h-6z" fill="#3B4E16"/>
<path transform="translate(288,78)" d="m0 0h6l3 5 8 21v5h-5l-2-2v-3h-13l-2 5h-6l1-6 9-24z" fill="#394D16"/>
<path transform="translate(358,1115)" d="m0 0h8l6 3 9 3-3 6-3 4-13 1h-33l-2-2 10-2 10-4 6-3z" fill="#4D4D25"/>
<path transform="translate(226,77)" d="m0 0 5 1 5 4 7 11-1 4-6 3-5 4-2-5-2 4-4-2-9-5 1-5 5-8z" fill="#89913E"/>
<path transform="translate(355,86)" d="m0 0h10l5 4 2 4-1 9-6 6h-10l-5-4-2-5 1-8 4-5z" fill="#384C14"/>
<path transform="translate(1158,149)" d="m0 0 6 1 7 4 21 1-2-6h2l1 7h8v-5l2-1-1 4h19l10-5h4l-2 4-3 5 16 5v2l4-1 2-4-1 7-1 2-27-9-14-2h-26l-13 2-7 3-13 4-7-1 1-2 7-1 11-4h4v-3l-4-2z" fill="#E6EBDD"/>
<path transform="translate(241,969)" d="m0 0 3 1 1 4v3l-8 6-6 3-6 7-7 6-6 8-2 1 1-5-5 2 3-10 9-10h2v-2l6-5 3-3h2v-2l5-3z" fill="#4A5719"/>
<path transform="translate(419,86)" d="m0 0h11l4 4 1 18-1 1h-5v-2h-3v2h-8l-4-4v-6l5-4 9-1-1-2h-5l-1 1h-6l1-5z" fill="#384C14"/>
<path transform="translate(1226,910)" d="m0 0h7l1 18 5 1 2-2 1-16h6v24h-8l-2 1h-7l-3-3v-2h-2z" fill="#EDEFE6"/>
<path transform="translate(1382,275)" d="m0 0h9l5 4 1 2v9l-1 2h-2l-1 3-3 2-9-1-4-5v-12z" fill="#F2F4EF"/>
<path transform="translate(49,82)" d="m0 0h5l9 4 3 3-1 8 1 4-12-2-3-1h-9l-5 1v-6l3-6 4-3 4-1v5l2 1 2-6z" fill="#9DCED3"/>
<path transform="translate(33,1051)" d="m0 0 1 2 2 1 2-2 1 2 2-2v29l-4 11-4 4h-2v-30z" fill="#5D6323"/>
<path transform="translate(667,960)" d="m0 0 5 2 6 10 5 7v2h2l2 4 3 3 4 19 1 7-1-2h-2l-1-2-3-1-2-4-4-4-7-25-4-9z" fill="#6E7033"/>
<path transform="translate(1194,910)" d="m0 0h10l4 4v21h-6l-1-17-1-1h-6l-1 1-1 17h-6v-24h7z" fill="#F0F2ED"/>
<path transform="translate(549,1120)" d="m0 0 16 3 16 8 9 2 9 4-2 1-13-1-6-1-15-2-16-8-2-5z" fill="#4D4D25"/>
<path transform="translate(196,98)" d="m0 0h14l8 2 7 5v3l-4 1h-8l-4-1 1 3-2 2-10 2-3-9v-7z" fill="#5F7E35"/>
<path transform="translate(106,673)" d="m0 0 10 2 1 2 9 2 1 4 4 2v3h2v4l-4-1-1 2h-3l-4-1v4h-4v2l-5-1v-10l-1-8z" fill="#707A33"/>
<path transform="translate(1162,76)" d="m0 0 2 1v2l-11 7-4 2-2 4-7 7-8 14-5 16v23l3 13 2 3v4h2v2l2 1-5 2-6-18-2-11v-16l3-14 4-9 6-10 9-10 9-8z" fill="#8E995A"/>
<path transform="translate(59,1110)" d="m0 0 2 2 2-2h11l2 2 10 2-4 5 13 1-4 2h-7l-7 2-5 1-11-4-2-4z" fill="#474C1C"/>
<path transform="translate(1211,75)" d="m0 0 5 1 11 4 4 2v2l6 2 1 3 4 2 9 9 9 17 3 13v19l-4 16h-2l-1 5h-2l1-4 3-11 1-1 1-7v-15l-1-7-6-14-5-9-9-10-10-7-8-4-6-2-9-2v-1z" fill="#A2A758"/>
<path transform="translate(621,990)" d="m0 0 17 2 11 4 11 10 1 7-2 1-5-5-8-5-14-5-6-2-1-3-5-2z" fill="#4A501B"/>
<path transform="translate(425,977)" d="m0 0h5v2l3 1h10l5 3v3l-7 1-18-1-20-2-2-2 3-3 9-1 12 1z" fill="#515E15"/>
<path transform="translate(0,415)" d="m0 0h1l2 10 4-1 3 7v4l3-1v3l-2 1-5 12-2 3h-2l-1 17h-1z" fill="#F1F8F3"/>
<path transform="translate(1155,171)" d="m0 0h6l3 7 4-3h9v12l-2 3h-7v-2l6-1v-2h-6l-2-2-1 3-4-1-6-2-1 3h-3l1-7z" fill="#CFD5B8"/>
<path transform="translate(515,978)" d="m0 0 4 2-1 3-6 5-5 5-4 5-4-2v-2l-6 1-5-3 3-5h5l4-5 3-1 3 1 1-2 4 1z" fill="#51541D"/>
<path transform="translate(780,948)" d="m0 0h2l1 37h2v33l-1 1-1 8h-1l-2-10-1-16v-50z" fill="#F4F7EA"/>
<path transform="translate(661,1009)" d="m0 0h3l4 5 3 2v2h2l4 11 1 5 3 11v5l-3-4-6-11-8-10-4-10z" fill="#4D4D24"/>
<path transform="translate(573,914)" d="m0 0 5 1 10 3 11 2 13 2 26 1v1l-11 1v3l-9 1-14-2-5-1-3-2-11-2v-2l-7-1-3-3z" fill="#777A2D"/>
<path transform="translate(1195,130)" d="m0 0 2 3 2 10h4l8-7 3-1-2 4 1 3-5 2-4 6-2 1-1 5h-8l-1-7-4-2-5-5 6 2 5 2z" fill="#F3F5EC"/>
<path transform="translate(64,945)" d="m0 0 2 1-3 13h2v5h-2l-2 11-7 1-1-2v-11l2-9 5-1 2-7z" fill="#43441D"/>
<path transform="translate(1221,174)" d="m0 0h6l1 2v9h-8l-2-1v2h-4v-8h-3v7h-4v-7h-3v7h-3v-10h15l2 1 1 4h2l-1-5z" fill="#E6EBDC"/>
<path transform="translate(31,726)" d="m0 0h3l-1 35-4-1-3-9-1-2-2 2v-5h-1v-7l2 2 1-5 2 2 1-8 2-1z" fill="#808435"/>
<path transform="translate(257,73)" d="m0 0h2l7 11 3 9v17l-4 10-5-2-9-4v-1l8 1 2-6 1-9h1v9h2v-13l-3-10-4-9z" fill="#9EB89A"/>
<path transform="translate(1262,122)" d="m0 0 3 3 1 5v26l-5 14h-2v3l-9-3 2-4h2l2-6 1 2-3 8h2l1-5h2l2-13 1-3z" fill="#E7ECDD"/>
<path transform="translate(387,1142)" d="m0 0h14l5 1 37 1-3 2h-82v-1l6-1h11z" fill="#626340"/>
<path transform="translate(451,77)" d="m0 0h6v32h-5l-1-1z" fill="#344811"/>
<path transform="translate(440,77)" d="m0 0h6v31h-6z" fill="#2B440A"/>
<path transform="translate(1128,126)" d="m0 0h1l1 21 3 14 3 6v3h2v-2h2v2l2 1h-2v2l-6 1v-2h-2l-5-14-1-6v-23h2z" fill="#EDF1E6"/>
<path transform="translate(335,86)" d="m0 0h13v5l-5 2-1 2-1 13-1 1h-5z" fill="#394B15"/>
<path transform="translate(1231,149)" d="m0 0h4l-2 4-3 5 16 5v2l4-1 2-4-1 7-1 2-27-9-11-3v-1l10-1 6-5z" fill="#D9E0B9"/>
<path transform="translate(1143,910)" d="m0 0h7v25h-7z" fill="#E9ECDF"/>
<path transform="translate(989,489)" d="m0 0 3 1v17h-10l-3-3v-6l4-4 5 1v-5z" fill="#929D5F"/>
<path transform="translate(1262,117)" d="m0 0 4 2 3 14v16l-3 15-3 8-2 4-5-2-1-2 4 1v-3h2l1-6 3-8v-26z" fill="#7C8744"/>
<path transform="translate(1220,76)" d="m0 0 10 3 14 10 8 8 9 15 3 11-3 2-3-10-8-15-10-10-5-4-4-2v-2l-4-1-6-3z" fill="#E0E5CE"/>
<path transform="translate(1122,1009)" d="m0 0 3 1v17h-10l-3-3v-6l2-3h8z" fill="#585B38"/>
<path transform="translate(685,809)" d="m0 0h1l4 24 4 16 6 28v7l-2-4-5-20-2-9-2-8-1-5-2-12-3-12z" fill="#93A063"/>
<path transform="translate(1079,606)" d="m0 0h3v18h-10l-2-2v-8l3-3 6 1z" fill="#929F61"/>
<path transform="translate(1224,1009)" d="m0 0h3v6h7l2 2v8l-2 2h-10z" fill="#434B23"/>
<path transform="translate(1e3 490)" d="m0 0h3v17h-10l-2-3v-7l4-3 5 1z" fill="#899656"/>
<path transform="translate(234,60)" d="m0 0 9 1 11 6 6 5 6 9 4 9 1 5v12l-3 11-1 4-3-1 4-11v-17l-4-11-5-7 1 4-7-6-3-3 1-2 2 1-10-5-9-3z" fill="#8E9A5D"/>
<path transform="translate(1096,718)" d="m0 0h2v18h-9l-3-3v-6l4-4 6 1z" fill="#899757"/>
<path transform="translate(376,86)" d="m0 0 9 1-2 6-1 16h-6z" fill="#354910"/>
<path transform="translate(1179,1014)" d="m0 0 5 1 1 1v11h-3l-1-9-3 1-1 8h-3v-10h-4v10h-4v-12z" fill="#535336"/>
<path transform="translate(978,788)" d="m0 0h15l1 1v7h-2v-5h-2v5h-3v-6h-2v6h-3v-6l-2 1-1 5h-9l-1-1v-5l1-1h7z" fill="#AAB18D"/>
<path transform="translate(970,723)" d="m0 0h11l3 2v11h-3v-10h-4v9h-4v-9l-4 1-1 9-3-1v-10z" fill="#919C5D"/>
<path transform="translate(896,378)" d="m0 0 4 1 6 9 1-10 3 1v16h-4l-6-10-1 10h-3z" fill="#8C9958"/>
<path transform="translate(978,607)" d="m0 0h9l3 3v5l-3 2h-7v7l-3-1v-15z" fill="#8D9A59"/>
<path transform="translate(969,490)" d="m0 0 4 1 5 13v3h-3l-1-2-8-1v3h-3l1-5 4-11z" fill="#99A765"/>
<path transform="translate(1214,1014)" d="m0 0 6 1 1 2v10h-3v-9h-5v9h-3l-1-9h-3l-1 9h-3v-12z" fill="#3F4421"/>
<path transform="translate(1264,916)" d="m0 0h6l3 2v9l-2 2h-7l-3-2v-8z" fill="#354C13"/>
<path transform="translate(1060,1010)" d="m0 0h3l6 14v3h-3l-1-2-8-1v3h-3l1-6 4-10z" fill="#68704D"/>
<path transform="translate(1068,723)" d="m0 0 6 1 2 2v7l-3 3h-6l-3-2-1-6z" fill="#909C5E"/>
<path transform="translate(994,719)" d="m0 0h10l2 2v6l-2 2h-7v7h-3z" fill="#A1B16D"/>
<path transform="translate(1051,611)" d="m0 0 6 1 3 4-1 6-2 2h-7l-3-3v-6z" fill="#909C5C"/>
<path transform="translate(916,494)" d="m0 0 5 1 5-1 3 2v11h-3v-10h-4l-1 10h-2l-1-10-3 1-1 9-4-1v-10z" fill="#8C995A"/>
<path transform="translate(1185,175)" d="m0 0h2v2l3-2h6l2 2v7l-1 1h-8l-2-3v-4h-4v7h-3v-9z" fill="#A7B383"/>
<path transform="translate(918,723)" d="m0 0 6 1 2 3v6l-4 3h-6l-3-4 1-6z" fill="#939E60"/>
<path transform="translate(852,784)" d="m0 0h12v11h-12z" fill="#7C7F57"/>
<path transform="translate(945,718)" d="m0 0h8v18l-3-1-1-9-2 1-1 9-3-1-1-12z" fill="#A3AF6A"/>
<path transform="translate(217,60)" d="m0 0h6v1l-9 3-10 5-7 7-5 8-3 10v15l4 13h-2l-4-10-1-5v-11l2-9 6-11 6-7 10-6z" fill="#8F9B5E"/>
<path transform="translate(1226,76)" d="m0 0 9 3 5 3 14 14 7 11 3 7-1 4-10-18-9-10-11-8-7-5z" fill="#869251"/>
<path transform="translate(196,97)" d="m0 0h22l9 6 1-6 2 2 2 4 5-5 2 1v2l-6 5-1 4h-6l-2-5-8-5-20-2z" fill="#9DCDD0"/>
<path transform="translate(896,490)" d="m0 0h11l1 3h-9v4h8v3h-8v4h8l1 3h-12z" fill="#929F61"/>
<path transform="translate(927,383)" d="m0 0h17l2 2v10h-3l-1-9h-3l-1 9h-3l-1-9h-3l-1 9h-3z" fill="#8B9858"/>
<path transform="translate(1335,1014)" d="m0 0h10l2 2 1 10-4 2-1-1v-9h-3l-1 9h-4z" fill="#A1D6E2"/>
<path transform="translate(899,719)" d="m0 0h9l3 3v3l-4-1-1-1h-7l1 9h6l2-2h3l-1 4-3 2h-7l-5-5v-7z" fill="#8F9B5C"/>
<path transform="translate(899,607)" d="m0 0h9l3 3v3l-4-1-1-1h-6l-1 6 1 3h6l2-2h3l-1 4-3 2h-7l-5-5v-7z" fill="#8C9958"/>
<path transform="translate(1163,916)" d="m0 0h7l2 2v8l-3 3-6-1-2-3v-6z" fill="#364C12"/>
<path transform="translate(1,710)" d="m0 0h1l1 7 1 18v23l-2 6h-1z" fill="#949F63"/>
<path transform="translate(1044,724)" d="m0 0 3 1 1 5h2l1-6h4l1 6h2l1-6h3l-1 5-2 7-4-1-2-5-3 6h-3l-3-9z" fill="#8E9B5C"/>
<path transform="translate(1012,274)" d="m0 0h8l4 3v4l-6 1h-9v-2h-10v-2h11z" fill="#DEE1D2"/>
<path transform="translate(1168,175)" d="m0 0h9v12l-2 3h-7v-2l6-1v-2h-6l-1-1z" fill="#E6EDDF"/>
<path transform="translate(1027,612)" d="m0 0h3l2 5 3-5h3l2 5 3-5h2l-1 7-2 5h-3l-2-6-3 6h-3l-4-9z" fill="#949F61"/>
<path transform="translate(1151,288)" d="m0 0h4v6l-6 4h-7l-3-2 1-5 5-2z" fill="#E9ECE3"/>
<path transform="translate(1018,288)" d="m0 0h6l-1 6-3 3-3 1h-7l-2-2 1-5z" fill="#EAEDE4"/>
<path transform="translate(532,1142)" d="m0 0h24l12 3v1h-33l-4-3z" fill="#626340"/>
<path transform="translate(1260,288)" d="m0 0h4v5l-6 5h-7l-2-2v-5l3-2z" fill="#EBEFE6"/>
<path transform="translate(1102,1014)" d="m0 0 6 1 2 2v10h-10l-1-1v-5l1-1h6v-3l-7 2 1-4z" fill="#5F6243"/>
<path transform="translate(960,611)" d="m0 0 6 1 2 2v5l-8 1h7v3l-2 1h-6l-3-4 1-7z" fill="#919D5E"/>
<path transform="translate(1258,118)" d="m0 0 1 3h2l2 9v19l-4 16h-2l-1 5h-2l1-4 3-11 1-1 1-7v-15l-1-7-1-1z" fill="#9FA44F"/>
<path transform="translate(13,457)" d="m0 0 2 4-6 4-3 4-3 5-1 1-1 23h-1v-28l1-7h3z" fill="#E4E8D5"/>
<path transform="translate(1133,119)" d="m0 0 1 4-1 4v25l4 12 1 6h-2l-4-9-2-7v-27l1-5h2z" fill="#A1A655"/>
<path transform="translate(1149,1014)" d="m0 0 7 1 1 1v11h-10v-6l5-2h-5z" fill="#575C3E"/>
<path transform="translate(904,788)" d="m0 0h5v2l3-2 5 1 1 1v5l-1 1h-6-3-5l-1-1v-5z" fill="#828561"/>
<path transform="translate(1028,785)" d="m0 0h3v11h-7-2-3v-6h-2v6h-2v-7l9 1v-2h4z" fill="#7D7E5F"/>
<path transform="translate(1190,149)" d="m0 0h2l1 7h8v-5l2-1-1 4h19l5-2-4 4-5 1v1l-30-1-15-1v-1h20z" fill="#CDD5AB"/>
<path transform="translate(51,894)" d="m0 0 1 2-4 14-7 14v-6l-2-1 4-10 6-12z" fill="#516026"/>
<path transform="translate(1011,723)" d="m0 0 6 1 1 1v11h-10l-1-1v-5l5-2h3v-2l-7 1 1-3z" fill="#95A260"/>
<path transform="translate(917,382)" d="m0 0 5 1 2 2v10h-10l-1-1v-5l7-2-4-1-3 1 2-4z" fill="#8E9A5B"/>
<path transform="translate(1240,273)" d="m0 0 1 2-1 3h10l1-3 2-1h7l4 3v3l-17 3 2-3-10-1v-5z" fill="#DFE3D4"/>
<path transform="translate(205,119)" d="m0 0h3l4 4v-2h10l-2 6-5 3-2-1 1-1-9-2-2 1 1-6z" fill="#97BCAB"/>
<path transform="translate(1187,71)" d="m0 0h19l14 4 1 3-10-3-7-1h-14l-17 3-2-2z" fill="#DADFC4"/>
<path transform="translate(1019,495)" d="m0 0h8l2 3v4h-9l1 2 7-1v3l-2 1h-6l-3-3v-6z" fill="#8D9A5B"/>
<path transform="translate(936,494)" d="m0 0 5 1 2 2v10h-10l-1-5 2-2 5-2-6 1 1-4z" fill="#94A161"/>
<path transform="translate(358,91)" d="m0 0 6 1 1 1v8l-2 2h-6l-2-2v-8z" fill="#9FD2DC"/>
<path transform="translate(1192,1014)" d="m0 0 5 1 3 3v4h-9l1 2h6l-1 3h-7l-2-3v-7z" fill="#4C4E2E"/>
<path transform="translate(951,383)" d="m0 0h6l3 2v5h-8v3l7-2v3l-2 1h-6l-3-3v-6z" fill="#8A9757"/>
<path transform="translate(1145,274)" d="m0 0h8l2 2v4l-12 2h-3v-2l-10-1 1-3v2l9-1z" fill="#DFE3D4"/>
<path transform="translate(1070,785)" d="m0 0h3v2l5 1v-3h3v11h-6-2-3z" fill="#828568"/>
<path transform="translate(1241,1015)" d="m0 0h7l2 2v5h-8v3l5-2h3l-2 4h-7l-2-2v-8z" fill="#444827"/>
<path transform="translate(994,611)" d="m0 0 6 1 1 1v11h-9l-2-2 1-4 6-2 1-2-7 1 1-3z" fill="#8D9A5B"/>
<path transform="translate(1221,174)" d="m0 0h6l1 2v9h-8l-2-1v2l-4-1h3v-9l2 4h2l-1-5z" fill="#A7B081"/>
<path transform="translate(939,611)" d="m0 0 6 1 1 1v11h-9l-1-1v-5l6-2 1-2-7 1 1-3z" fill="#889552"/>
<path transform="translate(1082,274)" d="m0 0 8 1 3 2v4h-17l1-5z" fill="#E9ECE4"/>
<path transform="translate(970,274)" d="m0 0 9 1 2 2v4h-17l1-4z" fill="#E9EDE5"/>
<path transform="translate(926,611)" d="m0 0 5 1 2 2v4h-8v3h7l-1 3h-7l-2-1v-9z" fill="#96A163"/>
<path transform="translate(257,73)" d="m0 0h2l7 11 3 9v17l-4 10-3-1 4-11v-16l-4-10z" fill="#9DCDD1"/>
<path transform="translate(317,91)" d="m0 0 5 1 1 1v7l-5 3-4-2-1-6 1-3z" fill="#9FD3DD"/>
<path transform="translate(1052,788)" d="m0 0h6l1 1v7h-2v-6h-2v6l-4-1-1 1h-5l-1-1v-5l1-1 7 1z" fill="#7C7E5F"/>
<path transform="translate(933,723)" d="m0 0 5 1 2 3v8l-3 1-1-9-4-1v9h-4v-10z" fill="#8E9B5C"/>
<path transform="translate(195,78)" d="m0 0 1 2-4 9-1 4v15l3 9 2-1 1 3-5 2-4-12v-15l4-12z" fill="#9DCED4"/>
<path transform="translate(1127,1015)" d="m0 0h3l3 6 3-6h2l-1 6-4 11h-3l-2-10z" fill="#505532"/>
<path transform="translate(1124,133)" d="m0 0h1l1 16 4 16 2 3v4h2v2l2 1-5 2-6-18-1-5z" fill="#798943"/>
<path transform="translate(1129,111)" d="m0 0 2 4-3 10-1 4-1 20-3-1v-16l3-14z" fill="#99A46C"/>
<path transform="translate(1254,910)" d="m0 0h7l1 3h-2v-2h-5v33h6v-11l13 2v1h-11v8l-1 1h-8z" fill="#A5AA7E"/>
<path transform="translate(1263,1010)" d="m0 0h6l3 3-1 5-2 2-2 7-3-1v-6l3-3 1-4-4 1-1 2h-2l1-5z" fill="#555C36"/>
<path transform="translate(1329,1009)" d="m0 0h4v18h-4l-1-1v-10l1-3z" fill="#A1D6E2"/>
<path transform="translate(379,1078)" d="m0 0 2 3 9 16 5 4 2 1v2h-6l-4-5-5-9-2-5-2-3z" fill="#51541D"/>
<path transform="translate(1089,1015)" d="m0 0h5l3 4v3h-9l1 2 4 1v-2h3l-2 4h-7l-2-2v-7h2v2h6l-1-2-4-2z" fill="#454928"/>
<path transform="translate(1231,149)" d="m0 0h4l-2 4-5 4-1 2h-9l-6-2v-1l10-1 6-5z" fill="#ECF2DE"/>
<path transform="translate(1024,723)" d="m0 0 5 1 1 3-6-1 1 2 5 2 1 4-3 2h-6l-1-4 6 1v-2l-5-1-1-5z" fill="#8F9C5D"/>
<path transform="translate(1019,611)" d="m0 0 5 1 1 3-6-1v2l5 1 2 4-2 3h-7l-1-4 6 1 1-2-6-1-1-5z" fill="#8E9B5C"/>
<path transform="translate(943,785)" d="m0 0h3v4h5v7h-2v-6h-3v6h-6l-1-8 2-1 2 1z" fill="#8F9375"/>
<path transform="translate(1036,723)" d="m0 0 5 1 1 3-6-1 1 2 5 2-1 5-1 1h-6l-2-4 4 1 3 1v-3l-5-1-2-4z" fill="#8A9758"/>
<path transform="translate(1007,611)" d="m0 0 6 1v3l-6-1v2l6 2 1 4-2 2h-6l-2-4h3v2l3-1 1-2-6-1-1-4z" fill="#8D9A5B"/>
<path transform="translate(1046,494)" d="m0 0 5 1 1 4-6-2 1 2 5 2v5l-1 1h-7l-1-4 7 2-1-2-5-2-1-5z" fill="#8C9A5B"/>
<path transform="translate(1033,495)" d="m0 0h6l2 4h-3v-2h-4l1 2 5 2 1 4-2 2h-7l-1-4 7 2v-3h-5l-2-2 1-4z" fill="#8C995A"/>
<path transform="translate(1,1130)" d="m0 0 2 2 3 10v4h13v1h-18z" fill="#929564"/>
<path transform="translate(1171,932)" d="m0 0h2v5l-3 3h-5l-2-2-6-1 1 4h-2v-5h6v-2l8-1z" fill="#7E8352"/>
<path transform="translate(1262,122)" d="m0 0 3 3v30h-2z" fill="#F2F5EB"/>
<path transform="translate(1066,785)" d="m0 0h3v11h-7l-1-1v-5l2-2h3z" fill="#858867"/>
<path transform="translate(234,60)" d="m0 0 9 1 11 6 6 5-1 3 1 4-7-6-3-3 1-2 2 1-10-5-9-3z" fill="#8F9D62"/>
<path transform="translate(208,106)" d="m0 0 7 3 6 1v1l-7 2-11 3-4 1-3-3v-7h1l1 8 10-3 1-2z" fill="#99BFB2"/>
<path transform="translate(51,960)" d="m0 0h1v19l-3 3-1-5v-12l2-4z" fill="#494526"/>
<path transform="translate(945,718)" d="m0 0h3v3h-2l2 5-1 1-1 9-3-1-1-12z" fill="#8E9957"/>
<path transform="translate(1252,102)" d="m0 0h3l6 10 3 11-3 2-3-10z" fill="#E7EDDE"/>
<path transform="translate(889,789)" d="m0 0h6v9l-5 1-2-5z" fill="#9CA181"/>
<path transform="translate(1064,1018)" d="m0 0 4 4 1 5h-3l-1-2-8-1v3h-3l1-6 3-1v2l5-1z" fill="#3E4A1F"/>
<path transform="translate(899,719)" d="m0 0h9l3 3v3l-4-1-1-1h-7l-2 6h-1v-7z" fill="#8A9858"/>
<path transform="translate(1139,95)" d="m0 0h3l-2 4-8 14-3 3 2-9 7-11z" fill="#899658"/>
<path transform="translate(1170,76)" d="m0 0 3 1-13 7-4 3h-2l-2 4-1-2-2-1 10-7 7-4z" fill="#DCE3C9"/>
<path transform="translate(1098,1017)" d="m0 0 1 2 3-2h4v3l-6 1-1 5-5 1 2-4h-3v2l-5-1v-2h9l-1-4z" fill="#CFD6C3"/>
<path transform="translate(950,609)" d="m0 0h3v3h2v2h-2l1 7 1 3-5-1v-9h-2z" fill="#8B9858"/>
<path transform="translate(962,267)" d="m0 0h2l-2 4-5 5-1 3v18l-2-3-1-3v-11l4-8z" fill="#6C7544"/>
<path transform="translate(1262,117)" d="m0 0 4 2 2 7-1 24h-1l-1-20z" fill="#98A36A"/>
<path transform="translate(854,786)" d="m0 0h8v7h-8z" fill="#FAFBFA"/>
<path transform="translate(1162,159)" d="m0 0 5 2-4 2-13 4-7-1 1-2 7-1z" fill="#D4DBC2"/>
<path transform="translate(1211,75)" d="m0 0 5 1 11 4 4 3-5 1-6-4-14-3v-1z" fill="#AAAF64"/>
<path transform="translate(954,788)" d="m0 0 5 1 1 1v6h-7l-1-6z" fill="#818361"/>
<path transform="translate(1007,614)" d="m0 0h9l1 3 6 2-1 3-4-1-2-1v2h-2l-2-4-5-2z" fill="#C0CC85"/>
<path transform="translate(882,788)" d="m0 0h5v8h-7v-7z" fill="#7C7F5C"/>
<path transform="translate(994,720)" d="m0 0 4 1h-2l1 5 5 1v2h-5v7h-3z" fill="#87924F"/>
<path transform="translate(1071,1009)" d="m0 0 3 1v17h-3z" fill="#414923"/>
<path transform="translate(1083,788)" d="m0 0h5l2 3-1 4-1 1h-5l-1-6z" fill="#87896A"/>
<path transform="translate(1191,176)" d="m0 0h6l1 1v7l-1 1h-8l-1-1v-6h2l1 4 4 1v-6z" fill="#E9EFE4"/>
<path transform="translate(211,64)" d="m0 0 3 1-3 3-8 6-6 4v-3l7-7z" fill="#9AB598"/>
<path transform="translate(1214,1014)" d="m0 0 6 1 1 2v10h-3v-9l-4-1-3-2z" fill="#555B34"/>
<path transform="translate(1034,497)" d="m0 0h4v2h3v-2h2l2 4 5 2v2l-5-1-2-1-1 3-3-5-5-2z" fill="#C3D087"/>
<path transform="translate(1166,1015)" d="m0 0h6l-1 2-1 10h-4z" fill="#5F663D"/>
<path transform="translate(912,788)" d="m0 0 5 1 1 1v5l-1 1h-6v-7z" fill="#7F8260"/>
<path transform="translate(952,490)" d="m0 0h3v17h-3z" fill="#929D5E"/>
<path transform="translate(1143,900)" d="m0 0h6l1 1v5l-1 1h-5l-2-2z" fill="#E8ECE0"/>
<path transform="translate(96,783)" d="m0 0 4 4 5 9-1 2-6-5-2-4z" fill="#6E7034"/>
<path transform="translate(1030,725)" d="m0 0 5 5 4 1v3l-4-1-3-1-1 2-2-4-5-2v-2l6 1z" fill="#C3D087"/>
<path transform="translate(993,617)" d="m0 0h5v4 3h-6l-2-2 1-4z" fill="#9EAA69"/>
<path transform="translate(939,611)" d="m0 0 6 1 1 2h-2v7l-5 1-1-3 4-1 1-4-7 1 1-3z" fill="#9FAC6A"/>
<path transform="translate(929,788)" d="m0 0h4l1 7-1 1h-5l-1-1v-5z" fill="#808164"/>
<path transform="translate(983,789)" d="m0 0h11v7h-2v-5h-2v5h-3v-6l-2 1-2 4z" fill="#686948"/>
<path transform="translate(951,383)" d="m0 0h6l3 2v2l-2 1h-7l-1-1-1 5h-1v-6z" fill="#9FAC6A"/>
<path transform="translate(402,1077)" d="m0 0 4 1 9 5-1 2-2-1h-9z" fill="#4D5B17"/>
<path transform="translate(1077,1015)" d="m0 0h7l-1 3-2 1-1 8h-3z" fill="#494C2A"/>
<path transform="translate(1213,71)" d="m0 0 10 2 7 3-3 2-10-3-7-2z" fill="#97A066"/>
<path transform="translate(513,1100)" d="m0 0 3 3 3 5v2h-6l-1-3h-3l1-3 1 1z" fill="#51541D"/>
<path transform="translate(1253,1015)" d="m0 0h7l-1 3h-3v9h-3z" fill="#464829"/>
<path transform="translate(1252,1015)" d="m0 0h1v12h-3l-2-1 2-3-4 2h-4v-3h8v-4h2z" fill="#D1D8C5"/>
<path transform="translate(1006,789)" d="m0 0h6l1 1v6h-6l-1-1z" fill="#747653"/>
<path transform="translate(998,497)" d="m0 0 5 1 1 5-2 2h-4l-1-7z" fill="#C2D688"/>
<path transform="translate(1222,175)" d="m0 0h5l1 1v9h-8v-4h2v2h4l-1-6-4-1z" fill="#E9EEDF"/>
<path transform="translate(1251,102)" d="m0 0 3 3 6 12-1 4h-2l-3-9-2-2z" fill="#AAAF62"/>
<path transform="translate(1141,101)" d="m0 0 1 2-3 9h-2l-1 7-2 3h-2l1-6z" fill="#A8AC5F"/>
<path transform="translate(1154,88)" d="m0 0 2 1-5 5-9 11-1-2 4-7z" fill="#A1A654"/>
<path transform="translate(910,496)" d="m0 0h5l-1 11-4-1z" fill="#959F61"/>
<path transform="translate(1231,170)" d="m0 0h3v15h-3z" fill="#E2E9D9"/>
<path transform="translate(1237,170)" d="m0 0h3v15h-3z" fill="#E7EAD9"/>
<path transform="translate(1226,76)" d="m0 0 9 3 5 3 3 4-2 2-8-6-7-5z" fill="#889451"/>
<path transform="translate(1078,785)" d="m0 0h3v11h-4l-1-7 2-1z" fill="#9EA381"/>
<path transform="translate(929,724)" d="m0 0 4 2-1 9h-4v-10z" fill="#959F61"/>
<path transform="translate(1062,612)" d="m0 0h7l-3 3-1 9h-3z" fill="#8C9A5A"/>
<path transform="translate(1241,1015)" d="m0 0h7l2 4-2 1h-7l-2-1z" fill="#74775B"/>
<path transform="translate(1090,726)" d="m0 0 5 1 1 5-1 1h-5l-1-1v-5z" fill="#C5D88A"/>
<path transform="translate(916,724)" d="m0 0h5l-4 4 1 5 3 1v2h-5l-3-4 1-6z" fill="#8B9959"/>
<path transform="translate(1079,724)" d="m0 0h6v2l-2 1-1 9h-3z" fill="#899554"/>
<path transform="translate(957,724)" d="m0 0h6v2l-2 1-1 9h-3z" fill="#8E9B5D"/>
<path transform="translate(1051,614)" d="m0 0 5 1 1 5-1 1h-5l-1-1v-5z" fill="#C6DB8C"/>
<path transform="translate(914,612)" d="m0 0h6v2l-2 1-1 9h-3z" fill="#8A9858"/>
<path transform="translate(926,611)" d="m0 0 5 1 1 2-1 3h-7l-2-1 2-4z" fill="#9DAA69"/>
<path transform="translate(984,497)" d="m0 0 4 1 1 5-2 2-4-1-1-5z" fill="#C5D88A"/>
<path transform="translate(1010,495)" d="m0 0h6v2l-2 1-1 9h-3z" fill="#909C5D"/>
<path transform="translate(321,107)" d="m0 0h2l-1 5h-6l-7-2-1 3v-4z" fill="#9ED0D8"/>
<path transform="translate(1149,89)" d="m0 0h2l-2 4-8 9-3 3 2-7z" fill="#E6ECDC"/>
<path transform="translate(1228,1018)" d="m0 0h5l1 5-2 2h-4l-1-6z" fill="#E1E4D7"/>
<path transform="translate(1081,1014)" d="m0 0h4v2l3-2h5l-4 2 4 2v2h-6v-2h-2v5h-1l-1-6 1-2z" fill="#A9AF94"/>
<path transform="translate(923,494)" d="m0 0 5 1 1 1v11h-3l-1-10-2-1z" fill="#929D5E"/>
<path transform="translate(291,88)" d="m0 0 2 2 2 7-1 1h-6l2-9z" fill="#9FD3DD"/>
<path transform="translate(1117,1017)" d="m0 0 4 1v6l-4 1-2-2v-5z" fill="#E3E6DB"/>
<path transform="translate(1192,1014)" d="m0 0 5 1v3 2h-7l-2 1 1-5z" fill="#7D8162"/>
<path transform="translate(1068,726)" d="m0 0 5 1v5l-5 1-2-2 1-4z" fill="#C6DC8C"/>
<path transform="translate(917,726)" d="m0 0 5 1 1 5-1 1h-5l-1-5z" fill="#C6DA8B"/>
<path transform="translate(1074,614)" d="m0 0 5 1v5l-5 1-2-2 1-4z" fill="#C4D98B"/>
<path transform="translate(1209,175)" d="m0 0h7l1 1v9h-3v-7l-4-1z" fill="#E3E7D5"/>
<path transform="translate(248,106)" d="m0 0 3 1-3 4 3 2-8-1-6-1 2-2z" fill="#A6CCC8"/>
<path transform="translate(1202,1015)" d="m0 0 5 1-1 2-1 9h-3z" fill="#47462C"/>
<path transform="translate(228,100)" d="m0 0 2 4 2 1v5h-6l-1-6h3z" fill="#9FD3DD"/>
<path transform="translate(1122,1010)" d="m0 0h1v16h-1l-1-7-4-1h-4l1-3h8z" fill="#354217"/>
<path transform="translate(978,788)" d="m0 0h15v1h-10l2 2v5h-3v-6l-2 1-1 5h-1z" fill="#8E9270"/>
<path transform="translate(997,788)" d="m0 0 5 1v6l-1 1h-5v-2l1-1-1-4z" fill="#757755"/>
<path transform="translate(897,491)" d="m0 0h11v2h-9l-1 13h-1z" fill="#86904A"/>
<path transform="translate(1262,164)" d="m0 0 3 2-2 6-2 4-5-2-1-2 4 1v-3h2z" fill="#A2AC77"/>
<path transform="translate(1130,121)" d="m0 0h1l-1 26h-1l-1-18-1-4 1-3z" fill="#D6DBBA"/>
<path transform="translate(232,121)" d="m0 0h8l1 5-2 1v-4h-2l-1 4-1-4h-2l-1 4-1-5z" fill="#9DCED3"/>
<path transform="translate(1172,1015)" d="m0 0 4 1 1 1v10h-3v-10l-3-1z" fill="#3D4B1D"/>
<path transform="translate(1059,724)" d="m0 0h3l-1 5-2 7-4-1v-4h2z" fill="#8D9A5B"/>
<path transform="translate(1043,612)" d="m0 0h2l-1 7-2 5h-3l-1-6 3 1z" fill="#8D9A5A"/>
<path transform="translate(1e3 490)" d="m0 0h1v6l-6 2-1 5-3 1v-7l4-3 5 1z" fill="#95A063"/>
<path transform="translate(1181,72)" d="m0 0 9 1v1l-17 3-2-2z" fill="#D5DABD"/>
<path transform="translate(238,63)" d="m0 0 8 1 8 5 1 2-10-4-7-2z" fill="#99B69A"/>
<path transform="translate(112,811)" d="m0 0 5 1 5 4v2l-6-1-4-4z" fill="#6E7034"/>
<path transform="translate(944,786)" d="m0 0h2v3h5v7h-2v-6h-3v6h-2z" fill="#555433"/>
<path transform="translate(1068,723)" d="m0 0 6 1 1 1v7l-2-4-5-1-4 1 2-4z" fill="#8B9756"/>
<path transform="translate(1007,611)" d="m0 0 6 1v3l-6-1v2h2v2l-5-1 1-5z" fill="#8E9B5C"/>
<path transform="translate(927,383)" d="m0 0 4 1-1 11h-3z" fill="#8E9C5E"/>
<path transform="translate(1027,612)" d="m0 0h3l2 7h2v5h-3l-4-9z" fill="#8C995A"/>
<path transform="translate(933,616)" d="m0 0 1 2h2l-1 4-1-2-1 3-8-2v-3h8z" fill="#B8C37F"/>
<path transform="translate(946,495)" d="m0 0h3v12h-3z" fill="#8F9D5F"/>
<path transform="translate(422,91)" d="m0 0h5l1 3-11 2-2-1v-2z" fill="#9BC7C8"/>
<path transform="translate(1261,933)" d="m0 0 13 2v1h-11v8l-2 1z" fill="#717446"/>
<path transform="translate(1019,495)" d="m0 0h8l-1 5h-6l-2-4z" fill="#A7B36E"/>
<path transform="translate(1085,1018)" d="m0 0 3 4 1 2 4 1v-2h3l-2 4h-7l-2-2z" fill="#48492C"/>
<path transform="translate(1171,932)" d="m0 0h2v5l-2 2h-5l-2-3h5z" fill="#41561D"/>
<path transform="translate(225,106)" d="m0 0 1 4h11v1h-16l-6-1v-1l10-1z" fill="#919B61"/>
<path transform="translate(1157,88)" d="m0 0 2 1-13 13-2-1 8-9h2l1-3z" fill="#EAECDB"/>
<path transform="translate(1260,1013)" d="m0 0 1 3h2l1-3h4l-1 5-2 1-1-2h-4v-2h-7v-1z" fill="#D2D9C6"/>
<path transform="translate(1051,724)" d="m0 0h4l1 6h2l-1 2-2-1-1 2-2-4h-2z" fill="#929D5F"/>
<path transform="translate(1080,607)" d="m0 0h1v16h-6l3-3z" fill="#86914D"/>
<path transform="translate(979,498)" d="m0 0 4 4 1 2 6 2v1h-8l-3-3z" fill="#909D5E"/>
<path transform="translate(967,497)" d="m0 0h1v5h5v1l-6 1-1 3h-3l1-5z" fill="#889451"/>
<path transform="translate(1258,155)" d="m0 0 2 3-1 7h-2l-1 5h-2l1-4z" fill="#AAAF60"/>
<path transform="translate(423,99)" d="m0 0h5l-1 4-1 1h-5l-1-4z" fill="#9DCFD6"/>
<path transform="translate(1185,175)" d="m0 0 1 2-2 1-1 7h-3v-9z" fill="#EAF3E8"/>
<path transform="translate(1149,1014)" d="m0 0 7 1-2 1v4l-7-1z" fill="#6C6F4C"/>
<path transform="translate(1071,615)" d="m0 0 2 4 4 3 1 2h-6l-2-2v-6z" fill="#8F9B5C"/>
<path transform="translate(980,610)" d="m0 0h6l1 4-6 1z" fill="#C2D589"/>
<path transform="translate(1157,172)" d="m0 0h3l3 8-1 4-6-2 1-2h3l-1-7z" fill="#F2F5EE"/>
<path transform="translate(1189,1018)" d="m0 0h1v6h8l-1 3h-7l-2-3z" fill="#343E18"/>
<path transform="translate(1130,166)" d="m0 0 2 2v4h2v2l2 1-5 2-2-6z" fill="#9EA974"/>
<path transform="translate(225,121)" d="m0 0 5 1-1 4-4 1-1-5z" fill="#96BEB1"/>
<path transform="translate(1163,81)" d="m0 0 3 1-3 3h-2v2l-5 2-2-2z" fill="#A7AC5D"/>
<path transform="translate(1207,72)" d="m0 0 10 2 3 1 1 3-10-3-7-1z" fill="#DBE2C3"/>
<path transform="translate(1173,72)" d="m0 0 4 2-11 4-3-1 3-1v-2z" fill="#869355"/>
<path transform="translate(218,61)" d="m0 0h5v3l-11 2 2-1 1-3z" fill="#97AA7D"/>
<path transform="translate(1207,178)" d="m0 0h4v7h-4z" fill="#D1D7B9"/>
<path transform="translate(1267,153)" d="m0 0 1 3-3 10-2 1 1-8z" fill="#859452"/>
<path transform="translate(266,108)" d="m0 0h2l-1 8-2 4-3-1z" fill="#9ED0D7"/>
<path transform="translate(237,98)" d="m0 0 2 1v2l-7 5-3-2-1-5h2l2 4z" fill="#9DCED4"/>
<path transform="translate(1242,86)" d="m0 0 4 2 6 6-1 3-9-9z" fill="#7A8C48"/>
<path transform="translate(958,612)" d="m0 0 7 2v3h-6l-2-4z" fill="#AAB775"/>
<path transform="translate(1019,611)" d="m0 0 5 1 1 3-6-1-1 2-2 1 1-5z" fill="#919D5F"/>
<path transform="translate(1251,160)" d="m0 0h1l-1 7-1 2-6-2-1-3h7z" fill="#E6EDD4"/>
<path transform="translate(1037,789)" d="m0 0h5l1 2-5-1v4h4v2h-5l-1-1v-5z" fill="#61613E"/>
<path transform="translate(970,789)" d="m0 0h5l1 3h-2v-2h-3v4l4 1-5 1-1-1v-5z" fill="#585837"/>
<path transform="translate(1036,723)" d="m0 0 5 1 1 3-6-1-1 2h-3l2-4z" fill="#929E60"/>
<path transform="translate(905,719)" d="m0 0 4 1 2 2v3l-4-1-6-2z" fill="#909D5E"/>
<path transform="translate(990,612)" d="m0 0h2v2h6l-1 3-5 1v-2l-5 1 1-2h2z" fill="#BDC583"/>
<path transform="translate(931,614)" d="m0 0h2v4l-8 1-1 2h-2v-5l2-1v2h7z" fill="#879554"/>
<path transform="translate(898,497)" d="m0 0h9v3h-9z" fill="#8D9B5D"/>
<path transform="translate(882,253)" d="m0 0 2 1-11 11v-3l4-5z" fill="#606D38"/>
<path transform="translate(1170,177)" d="m0 0 4 1v5l-5-1z" fill="#919E63"/>
<path transform="translate(1162,176)" d="m0 0 3 2 3-2-1 7-2 3-3-1h2l-2-5z" fill="#A9B17E"/>
<path transform="translate(1134,165)" d="m0 0 2 2v3h2v-2h2v2l2 1h-2v2l-4 1-2-5z" fill="#D9E0C2"/>
<path transform="translate(1256,160)" d="m0 0 1 2-3 8 2 1-2 1-4-3 2-3h2z" fill="#E7EDDB"/>
<path transform="translate(1212,135)" d="m0 0h2l-2 4 1 3-5 1v-2l-2-1z" fill="#E9ECD8"/>
<path transform="translate(1298,1018)" d="m0 0 4 1-1 5-4-1z" fill="#F6F9F8"/>
<path transform="translate(1042,789)" d="m0 0 3 1-1 5-6-1v-4z" fill="#CFD5C0"/>
<path transform="translate(889,789)" d="m0 0h6v8l-2-3v-3h-2v4l-3-1z" fill="#49472C"/>
<path transform="translate(1086,727)" d="m0 0 3 1 1 4 4 2h-3v2l-4-2-1-1z" fill="#929F61"/>
<path transform="translate(952,614)" d="m0 0h1l1 7 1 3-5-1v-8z" fill="#93A062"/>
<path transform="translate(905,607)" d="m0 0 4 1 2 2v3l-4-1-5-2z" fill="#929E60"/>
<path transform="translate(915,388)" d="m0 0 6 1-2 4h-4l-2-4z" fill="#AAB774"/>
<path transform="translate(217,121)" d="m0 0h5l-2 6-3 1z" fill="#97B59A"/>
<path transform="translate(215,121)" d="m0 0h2v8l-4 1 1-2-3-3 2-2v2h3z" fill="#9DCCCF"/>
</svg>
